<svg version="1.1" xmlns="http://www.w3.org/2000/svg" xmlns:xlink="http://www.w3.org/1999/xlink" width="691.70263671875" height="428"><defs/><g><g transform="translate(-118,-62) scale(1,1)"><rect fill="#C0C0C0" stroke="none" x="247" y="79" width="423" height="408" opacity="0.2"/></g><g transform="translate(-118,-62) scale(1,1)"><rect fill="#ffffff" stroke="none" x="240" y="72" width="423" height="408"/></g><g transform="translate(-118,-62) scale(1,1)"><path fill="none" stroke="#000000" d="M 240 72 L 663 72 L 663 480 L 240 480 L 240 72 Z Z" stroke-miterlimit="10"/></g><g transform="translate(-118,-62) scale(1,1)"><g><path fill="none" stroke="none"/><text fill="#000000" stroke="none" font-family="Arial" font-size="13px" font-style="normal" font-weight="bold" text-decoration="none" x="401.991455078125" y="91.5">indoor navigation</text></g></g><g transform="translate(-118,-62) scale(1,1)"><path fill="#ffffff" stroke="none" d="M 167.53068821022728 265.68 C 167.53068821022728 260.886167936 171.41653053517274 257 176.2099609375 257 C 181.00339133982726 257 184.88923366477272 260.886167936 184.88923366477272 265.68 C 184.88923366477272 270.473832064 181.00339133982726 274.36 176.2099609375 274.36 C 171.41653053517274 274.36 167.53068821022728 270.473832064 167.53068821022728 265.68 Z"/></g><g transform="translate(-118,-62) scale(1,1)"><path fill="none" stroke="#000000" d="M 167.53068821022728 265.68 C 167.53068821022728 260.886167936 171.41653053517274 257 176.2099609375 257 C 181.00339133982726 257 184.88923366477272 260.886167936 184.88923366477272 265.68 C 184.88923366477272 270.473832064 181.00339133982726 274.36 176.2099609375 274.36 C 171.41653053517274 274.36 167.53068821022728 270.473832064 167.53068821022728 265.68 Z" stroke-miterlimit="10"/></g><g transform="translate(-118,-62) scale(1,1)"><path fill="none" stroke="#000000" d="M 176.2099609375 274.36 L 176.2099609375 291.64" stroke-miterlimit="10"/></g><g transform="translate(-118,-62) scale(1,1)"><path fill="none" stroke="#000000" d="M 167.02014275568183 280.84 L 185.39977911931817 280.84" stroke-miterlimit="10"/></g><g transform="translate(-118,-62) scale(1,1)"><path fill="none" stroke="#000000" d="M 176.2099609375 291.64 L 163.44632457386365 309" stroke-miterlimit="10"/></g><g transform="translate(-118,-62) scale(1,1)"><path fill="none" stroke="#000000" d="M 176.2099609375 291.64 L 188.97359730113635 309" stroke-miterlimit="10"/></g><g transform="translate(-118,-62) scale(1,1)"><g><path fill="none" stroke="none"/><text fill="#000000" stroke="none" font-family="Arial" font-size="13px" font-style="normal" font-weight="bold" text-decoration="none" x="136.832275390625" y="329.5">college visitor</text></g></g><g transform="translate(-118,-62) scale(1,1)"><path fill="#C0C0C0" stroke="none" d="M 271 178.5 C 271 158.8938896 308.8319344 143 355.5 143 C 402.1680656 143 440 158.8938896 440 178.5 C 440 198.1061104 402.1680656 214 355.5 214 C 308.8319344 214 271 198.1061104 271 178.5 Z" opacity="0.2"/></g><g transform="translate(-118,-62) scale(1,1)"><path fill="#ffffff" stroke="none" d="M 264 171.5 C 264 151.8938896 301.8319344 136 348.5 136 C 395.1680656 136 433 151.8938896 433 171.5 C 433 191.1061104 395.1680656 207 348.5 207 C 301.8319344 207 264 191.1061104 264 171.5 Z"/></g><g transform="translate(-118,-62) scale(1,1)"><path fill="none" stroke="#000000" d="M 264 171.5 C 264 151.8938896 301.8319344 136 348.5 136 C 395.1680656 136 433 151.8938896 433 171.5 C 433 191.1061104 395.1680656 207 348.5 207 C 301.8319344 207 264 191.1061104 264 171.5 Z" stroke-miterlimit="10"/></g><g transform="translate(-118,-62) scale(1,1)"><g><path fill="none" stroke="none"/><text fill="#000000" stroke="none" font-family="Arial" font-size="13px" font-style="normal" font-weight="bold" text-decoration="none" x="297.9091796875" y="178.5">chose destination</text></g></g><g transform="translate(-118,-62) scale(1,1)"><path fill="#C0C0C0" stroke="none" d="M 263 424 C 263 414.6111584 316.0542512 407 381.5 407 C 446.9457488 407 500 414.6111584 500 424 C 500 433.3888416 446.9457488 441 381.5 441 C 316.0542512 441 263 433.3888416 263 424 Z" opacity="0.2"/></g><g transform="translate(-118,-62) scale(1,1)"><path fill="#ffffff" stroke="none" d="M 256 417 C 256 407.6111584 309.0542512 400 374.5 400 C 439.9457488 400 493 407.6111584 493 417 C 493 426.3888416 439.9457488 434 374.5 434 C 309.0542512 434 256 426.3888416 256 417 Z"/></g><g transform="translate(-118,-62) scale(1,1)"><path fill="none" stroke="#000000" d="M 256 417 C 256 407.6111584 309.0542512 400 374.5 400 C 439.9457488 400 493 407.6111584 493 417 C 493 426.3888416 439.9457488 434 374.5 434 C 309.0542512 434 256 426.3888416 256 417 Z" stroke-miterlimit="10"/></g><g transform="translate(-118,-62) scale(1,1)"><g><path fill="none" stroke="none"/><text fill="#000000" stroke="none" font-family="Arial" font-size="13px" font-style="normal" font-weight="bold" text-decoration="none" x="301.8701171875" y="424">information about college</text></g></g><g transform="translate(-118,-62) scale(1,1)"><path fill="#C0C0C0" stroke="none" d="M 271 344 C 271 334.6111584 305.697928 327 348.5 327 C 391.302072 327 426 334.6111584 426 344 C 426 353.3888416 391.302072 361 348.5 361 C 305.697928 361 271 353.3888416 271 344 Z" opacity="0.2"/></g><g transform="translate(-118,-62) scale(1,1)"><path fill="#ffffff" stroke="none" d="M 264 337 C 264 327.6111584 298.697928 320 341.5 320 C 384.302072 320 419 327.6111584 419 337 C 419 346.3888416 384.302072 354 341.5 354 C 298.697928 354 264 346.3888416 264 337 Z"/></g><g transform="translate(-118,-62) scale(1,1)"><path fill="none" stroke="#000000" d="M 264 337 C 264 327.6111584 298.697928 320 341.5 320 C 384.302072 320 419 327.6111584 419 337 C 419 346.3888416 384.302072 354 341.5 354 C 298.697928 354 264 346.3888416 264 337 Z" stroke-miterlimit="10"/></g><g transform="translate(-118,-62) scale(1,1)"><g><path fill="none" stroke="none"/><text fill="#000000" stroke="none" font-family="Arial" font-size="13px" font-style="normal" font-weight="bold" text-decoration="none" x="294.16552734375" y="344">see college map</text></g></g><g transform="translate(-118,-62) scale(1,1)"><path fill="#C0C0C0" stroke="none" d="M 271 280 C 271 270.6111584 305.0263552 263 347 263 C 388.9736448 263 423 270.6111584 423 280 C 423 289.3888416 388.9736448 297 347 297 C 305.0263552 297 271 289.3888416 271 280 Z" opacity="0.2"/></g><g transform="translate(-118,-62) scale(1,1)"><path fill="#ffffff" stroke="none" d="M 264 273 C 264 263.6111584 298.0263552 256 340 256 C 381.9736448 256 416 263.6111584 416 273 C 416 282.3888416 381.9736448 290 340 290 C 298.0263552 290 264 282.3888416 264 273 Z"/></g><g transform="translate(-118,-62) scale(1,1)"><path fill="none" stroke="#000000" d="M 264 273 C 264 263.6111584 298.0263552 256 340 256 C 381.9736448 256 416 263.6111584 416 273 C 416 282.3888416 381.9736448 290 340 290 C 298.0263552 290 264 282.3888416 264 273 Z" stroke-miterlimit="10"/></g><g transform="translate(-118,-62) scale(1,1)"><g><path fill="none" stroke="none"/><text fill="#000000" stroke="none" font-family="Arial" font-size="13px" font-style="normal" font-weight="bold" text-decoration="none" x="295.921875" y="280">points of intrest</text></g></g><g transform="translate(-118,-62) scale(1,1)"><path fill="#ffffff" stroke="none" d="M 743.1720456321023 265.68 C 743.1720456321023 260.886167936 747.0578879570477 257 751.851318359375 257 C 756.6447487617023 257 760.5305910866477 260.886167936 760.5305910866477 265.68 C 760.5305910866477 270.473832064 756.6447487617023 274.36 751.851318359375 274.36 C 747.0578879570477 274.36 743.1720456321023 270.473832064 743.1720456321023 265.68 Z"/></g><g transform="translate(-118,-62) scale(1,1)"><path fill="none" stroke="#000000" d="M 743.1720456321023 265.68 C 743.1720456321023 260.886167936 747.0578879570477 257 751.851318359375 257 C 756.6447487617023 257 760.5305910866477 260.886167936 760.5305910866477 265.68 C 760.5305910866477 270.473832064 756.6447487617023 274.36 751.851318359375 274.36 C 747.0578879570477 274.36 743.1720456321023 270.473832064 743.1720456321023 265.68 Z" stroke-miterlimit="10"/></g><g transform="translate(-118,-62) scale(1,1)"><path fill="none" stroke="#000000" d="M 751.851318359375 274.36 L 751.851318359375 291.64" stroke-miterlimit="10"/></g><g transform="translate(-118,-62) scale(1,1)"><path fill="none" stroke="#000000" d="M 742.6615001775568 280.84 L 761.0411365411932 280.84" stroke-miterlimit="10"/></g><g transform="translate(-118,-62) scale(1,1)"><path fill="none" stroke="#000000" d="M 751.851318359375 291.64 L 739.0876819957386 309" stroke-miterlimit="10"/></g><g transform="translate(-118,-62) scale(1,1)"><path fill="none" stroke="#000000" d="M 751.851318359375 291.64 L 764.6149547230114 309" stroke-miterlimit="10"/></g><g transform="translate(-118,-62) scale(1,1)"><g><path fill="none" stroke="none"/><text fill="#000000" stroke="none" font-family="Arial" font-size="13px" font-style="normal" font-weight="bold" text-decoration="none" x="710.655029296875" y="329.5">map database</text></g></g><g transform="translate(-118,-62) scale(1,1)"><path fill="#ffffff" stroke="none" d="M 731.1425046164773 369.68 C 731.1425046164773 364.886167936 735.0283469414227 361 739.82177734375 361 C 744.6152077460773 361 748.5010500710227 364.886167936 748.5010500710227 369.68 C 748.5010500710227 374.473832064 744.6152077460773 378.36 739.82177734375 378.36 C 735.0283469414227 378.36 731.1425046164773 374.473832064 731.1425046164773 369.68 Z"/></g><g transform="translate(-118,-62) scale(1,1)"><path fill="none" stroke="#000000" d="M 731.1425046164773 369.68 C 731.1425046164773 364.886167936 735.0283469414227 361 739.82177734375 361 C 744.6152077460773 361 748.5010500710227 364.886167936 748.5010500710227 369.68 C 748.5010500710227 374.473832064 744.6152077460773 378.36 739.82177734375 378.36 C 735.0283469414227 378.36 731.1425046164773 374.473832064 731.1425046164773 369.68 Z" stroke-miterlimit="10"/></g><g transform="translate(-118,-62) scale(1,1)"><path fill="none" stroke="#000000" d="M 739.82177734375 378.36 L 739.82177734375 395.64" stroke-miterlimit="10"/></g><g transform="translate(-118,-62) scale(1,1)"><path fill="none" stroke="#000000" d="M 730.6319591619318 384.84 L 749.0115955255682 384.84" stroke-miterlimit="10"/></g><g transform="translate(-118,-62) scale(1,1)"><path fill="none" stroke="#000000" d="M 739.82177734375 395.64 L 727.0581409801136 413" stroke-miterlimit="10"/></g><g transform="translate(-118,-62) scale(1,1)"><path fill="none" stroke="#000000" d="M 739.82177734375 395.64 L 752.5854137073864 413" stroke-miterlimit="10"/></g><g transform="translate(-118,-62) scale(1,1)"><g><path fill="none" stroke="none"/><text fill="#000000" stroke="none" font-family="Arial" font-size="13px" font-style="normal" font-weight="bold" text-decoration="none" x="695.734130859375" y="433.5">office database</text></g></g><g transform="translate(-118,-62) scale(1,1)"><path fill="#C0C0C0" stroke="none" d="M 447 240 C 447 230.6111584 495.5770992 223 555.5 223 C 615.4229008 223 664 230.6111584 664 240 C 664 249.3888416 615.4229008 257 555.5 257 C 495.5770992 257 447 249.3888416 447 240 Z" opacity="0.2"/></g><g transform="translate(-118,-62) scale(1,1)"><path fill="#ffffff" stroke="none" d="M 440 233 C 440 223.6111584 488.5770992 216 548.5 216 C 608.4229008 216 657 223.6111584 657 233 C 657 242.3888416 608.4229008 250 548.5 250 C 488.5770992 250 440 242.3888416 440 233 Z"/></g><g transform="translate(-118,-62) scale(1,1)"><path fill="none" stroke="#000000" d="M 440 233 C 440 223.6111584 488.5770992 216 548.5 216 C 608.4229008 216 657 223.6111584 657 233 C 657 242.3888416 608.4229008 250 548.5 250 C 488.5770992 250 440 242.3888416 440 233 Z" stroke-miterlimit="10"/></g><g transform="translate(-118,-62) scale(1,1)"><g><path fill="none" stroke="none"/><text fill="#000000" stroke="none" font-family="Arial" font-size="13px" font-style="normal" font-weight="bold" text-decoration="none" x="482.3701171875" y="240">get route to destination</text></g></g><g transform="translate(-118,-62) scale(1,1)"><path fill="none" stroke="#000000" d="M 225 259 L 297 208" stroke-miterlimit="10"/></g><g transform="translate(-118,-62) scale(1,1)"><path fill="none" stroke="#000000" d="M 225 288 L 263 283" stroke-miterlimit="10"/></g><g transform="translate(-118,-62) scale(1,1)"><path fill="none" stroke="#000000" d="M 225 308 L 270 319" stroke-miterlimit="10"/></g><g transform="translate(-118,-62) scale(1,1)"><path fill="none" stroke="#000000" d="M 225 325 L 345 399" stroke-miterlimit="10"/></g><g transform="translate(-118,-62) scale(1,1)"><path fill="none" stroke="#000000" d="M 434 198 L 490 215" stroke-miterlimit="10"/></g><g transform="translate(-118,-62) scale(1,1)"><path fill="none" stroke="#000000" d="M 741 255 L 720 168 L 434 170" stroke-miterlimit="10"/></g><g transform="translate(-118,-62) scale(1,1)"><path fill="none" stroke="#000000" d="M 703 292 L 417 277" stroke-miterlimit="10"/></g><g transform="translate(-118,-62) scale(1,1)"><path fill="none" stroke="#000000" d="M 687 402 L 494 411" stroke-miterlimit="10"/></g><g transform="translate(-118,-62) scale(1,1)"><path fill="none" stroke="#000000" d="M 703 300 L 420 329" stroke-miterlimit="10"/></g></g></svg>