<svg version="1.1" xmlns="http://www.w3.org/2000/svg" xmlns:xlink="http://www.w3.org/1999/xlink" width="817.919921875" height="428"><defs/><g><g transform="translate(-38,-62) scale(1,1)"><rect fill="#C0C0C0" stroke="none" x="247" y="79" width="423" height="408" opacity="0.2"/></g><g transform="translate(-38,-62) scale(1,1)"><rect fill="#ffffff" stroke="none" x="240" y="72" width="423" height="408"/></g><g transform="translate(-38,-62) scale(1,1)"><path fill="none" stroke="#000000" d="M 240 72 L 663 72 L 663 480 L 240 480 L 240 72 Z Z" stroke-miterlimit="10"/></g><g transform="translate(-38,-62) scale(1,1)"><g><path fill="none" stroke="none"/><text fill="#000000" stroke="none" font-family="Arial" font-size="13px" font-style="normal" font-weight="bold" text-decoration="none" x="401.991455078125" y="91.5">indoor navigation</text></g></g><g transform="translate(-38,-62) scale(1,1)"><path fill="#ffffff" stroke="none" d="M 87.53068821022727 297.68 C 87.53068821022727 292.886167936 91.41653053517273 289 96.2099609375 289 C 101.00339133982727 289 104.88923366477273 292.886167936 104.88923366477273 297.68 C 104.88923366477273 302.473832064 101.00339133982727 306.36 96.2099609375 306.36 C 91.41653053517273 306.36 87.53068821022727 302.473832064 87.53068821022727 297.68 Z"/></g><g transform="translate(-38,-62) scale(1,1)"><path fill="none" stroke="#000000" d="M 87.53068821022727 297.68 C 87.53068821022727 292.886167936 91.41653053517273 289 96.2099609375 289 C 101.00339133982727 289 104.88923366477273 292.886167936 104.88923366477273 297.68 C 104.88923366477273 302.473832064 101.00339133982727 306.36 96.2099609375 306.36 C 91.41653053517273 306.36 87.53068821022727 302.473832064 87.53068821022727 297.68 Z" stroke-miterlimit="10"/></g><g transform="translate(-38,-62) scale(1,1)"><path fill="none" stroke="#000000" d="M 96.2099609375 306.36 L 96.2099609375 323.64" stroke-miterlimit="10"/></g><g transform="translate(-38,-62) scale(1,1)"><path fill="none" stroke="#000000" d="M 87.02014275568182 312.84 L 105.39977911931818 312.84" stroke-miterlimit="10"/></g><g transform="translate(-38,-62) scale(1,1)"><path fill="none" stroke="#000000" d="M 96.2099609375 323.64 L 83.44632457386363 341" stroke-miterlimit="10"/></g><g transform="translate(-38,-62) scale(1,1)"><path fill="none" stroke="#000000" d="M 96.2099609375 323.64 L 108.97359730113637 341" stroke-miterlimit="10"/></g><g transform="translate(-38,-62) scale(1,1)"><g><path fill="none" stroke="none"/><text fill="#000000" stroke="none" font-family="Arial" font-size="13px" font-style="normal" font-weight="bold" text-decoration="none" x="79.236328125" y="361.5">visitor</text></g></g><g transform="translate(-38,-62) scale(1,1)"><path fill="#C0C0C0" stroke="none" d="M 263 282.5 C 263 262.8938896 300.8319344 247 347.5 247 C 394.1680656 247 432 262.8938896 432 282.5 C 432 302.1061104 394.1680656 318 347.5 318 C 300.8319344 318 263 302.1061104 263 282.5 Z" opacity="0.2"/></g><g transform="translate(-38,-62) scale(1,1)"><path fill="#ffffff" stroke="none" d="M 256 275.5 C 256 255.8938896 293.8319344 240 340.5 240 C 387.1680656 240 425 255.8938896 425 275.5 C 425 295.1061104 387.1680656 311 340.5 311 C 293.8319344 311 256 295.1061104 256 275.5 Z"/></g><g transform="translate(-38,-62) scale(1,1)"><path fill="none" stroke="#000000" d="M 256 275.5 C 256 255.8938896 293.8319344 240 340.5 240 C 387.1680656 240 425 255.8938896 425 275.5 C 425 295.1061104 387.1680656 311 340.5 311 C 293.8319344 311 256 295.1061104 256 275.5 Z" stroke-miterlimit="10"/></g><g transform="translate(-38,-62) scale(1,1)"><g><path fill="none" stroke="none"/><text fill="#000000" stroke="none" font-family="Arial" font-size="13px" font-style="normal" font-weight="bold" text-decoration="none" x="289.9091796875" y="282.5">chose destination</text></g></g><g transform="translate(-38,-62) scale(1,1)"><path fill="#C0C0C0" stroke="none" d="M 255 384 C 255 374.6111584 308.0542512 367 373.5 367 C 438.9457488 367 492 374.6111584 492 384 C 492 393.3888416 438.9457488 401 373.5 401 C 308.0542512 401 255 393.3888416 255 384 Z" opacity="0.2"/></g><g transform="translate(-38,-62) scale(1,1)"><path fill="#ffffff" stroke="none" d="M 248 377 C 248 367.6111584 301.0542512 360 366.5 360 C 431.9457488 360 485 367.6111584 485 377 C 485 386.3888416 431.9457488 394 366.5 394 C 301.0542512 394 248 386.3888416 248 377 Z"/></g><g transform="translate(-38,-62) scale(1,1)"><path fill="none" stroke="#000000" d="M 248 377 C 248 367.6111584 301.0542512 360 366.5 360 C 431.9457488 360 485 367.6111584 485 377 C 485 386.3888416 431.9457488 394 366.5 394 C 301.0542512 394 248 386.3888416 248 377 Z" stroke-miterlimit="10"/></g><g transform="translate(-38,-62) scale(1,1)"><g><path fill="none" stroke="none"/><text fill="#000000" stroke="none" font-family="Arial" font-size="13px" font-style="normal" font-weight="bold" text-decoration="none" x="302.185546875" y="384">view destination menu</text></g></g><g transform="translate(-38,-62) scale(1,1)"><path fill="#ffffff" stroke="none" d="M 766.2806882102273 265.68 C 766.2806882102273 260.886167936 770.1665305351727 257 774.9599609375 257 C 779.7533913398273 257 783.6392336647727 260.886167936 783.6392336647727 265.68 C 783.6392336647727 270.473832064 779.7533913398273 274.36 774.9599609375 274.36 C 770.1665305351727 274.36 766.2806882102273 270.473832064 766.2806882102273 265.68 Z"/></g><g transform="translate(-38,-62) scale(1,1)"><path fill="none" stroke="#000000" d="M 766.2806882102273 265.68 C 766.2806882102273 260.886167936 770.1665305351727 257 774.9599609375 257 C 779.7533913398273 257 783.6392336647727 260.886167936 783.6392336647727 265.68 C 783.6392336647727 270.473832064 779.7533913398273 274.36 774.9599609375 274.36 C 770.1665305351727 274.36 766.2806882102273 270.473832064 766.2806882102273 265.68 Z" stroke-miterlimit="10"/></g><g transform="translate(-38,-62) scale(1,1)"><path fill="none" stroke="#000000" d="M 774.9599609375 274.36 L 774.9599609375 291.64" stroke-miterlimit="10"/></g><g transform="translate(-38,-62) scale(1,1)"><path fill="none" stroke="#000000" d="M 765.7701427556818 280.84 L 784.1497791193182 280.84" stroke-miterlimit="10"/></g><g transform="translate(-38,-62) scale(1,1)"><path fill="none" stroke="#000000" d="M 774.9599609375 291.64 L 762.1963245738636 309" stroke-miterlimit="10"/></g><g transform="translate(-38,-62) scale(1,1)"><path fill="none" stroke="#000000" d="M 774.9599609375 291.64 L 787.7235973011364 309" stroke-miterlimit="10"/></g><g transform="translate(-38,-62) scale(1,1)"><g><path fill="none" stroke="none"/><text fill="#000000" stroke="none" font-family="Arial" font-size="13px" font-style="normal" font-weight="bold" text-decoration="none" x="712.438720703125" y="329.5">google map database</text></g></g><g transform="translate(-38,-62) scale(1,1)"><path fill="#ffffff" stroke="none" d="M 738.7247800071023 369.68 C 738.7247800071023 364.886167936 742.6106223320477 361 747.404052734375 361 C 752.1974831367023 361 756.0833254616477 364.886167936 756.0833254616477 369.68 C 756.0833254616477 374.473832064 752.1974831367023 378.36 747.404052734375 378.36 C 742.6106223320477 378.36 738.7247800071023 374.473832064 738.7247800071023 369.68 Z"/></g><g transform="translate(-38,-62) scale(1,1)"><path fill="none" stroke="#000000" d="M 738.7247800071023 369.68 C 738.7247800071023 364.886167936 742.6106223320477 361 747.404052734375 361 C 752.1974831367023 361 756.0833254616477 364.886167936 756.0833254616477 369.68 C 756.0833254616477 374.473832064 752.1974831367023 378.36 747.404052734375 378.36 C 742.6106223320477 378.36 738.7247800071023 374.473832064 738.7247800071023 369.68 Z" stroke-miterlimit="10"/></g><g transform="translate(-38,-62) scale(1,1)"><path fill="none" stroke="#000000" d="M 747.404052734375 378.36 L 747.404052734375 395.64" stroke-miterlimit="10"/></g><g transform="translate(-38,-62) scale(1,1)"><path fill="none" stroke="#000000" d="M 738.2142345525568 384.84 L 756.5938709161932 384.84" stroke-miterlimit="10"/></g><g transform="translate(-38,-62) scale(1,1)"><path fill="none" stroke="#000000" d="M 747.404052734375 395.64 L 734.6404163707386 413" stroke-miterlimit="10"/></g><g transform="translate(-38,-62) scale(1,1)"><path fill="none" stroke="#000000" d="M 747.404052734375 395.64 L 760.1676890980114 413" stroke-miterlimit="10"/></g><g transform="translate(-38,-62) scale(1,1)"><g><path fill="none" stroke="none"/><text fill="#000000" stroke="none" font-family="Arial" font-size="13px" font-style="normal" font-weight="bold" text-decoration="none" x="696.4482421875" y="433.5">location database</text></g></g><g transform="translate(-38,-62) scale(1,1)"><path fill="#C0C0C0" stroke="none" d="M 439 336 C 439 326.6111584 487.5770992 319 547.5 319 C 607.4229008 319 656 326.6111584 656 336 C 656 345.3888416 607.4229008 353 547.5 353 C 487.5770992 353 439 345.3888416 439 336 Z" opacity="0.2"/></g><g transform="translate(-38,-62) scale(1,1)"><path fill="#ffffff" stroke="none" d="M 432 329 C 432 319.6111584 480.5770992 312 540.5 312 C 600.4229008 312 649 319.6111584 649 329 C 649 338.3888416 600.4229008 346 540.5 346 C 480.5770992 346 432 338.3888416 432 329 Z"/></g><g transform="translate(-38,-62) scale(1,1)"><path fill="none" stroke="#000000" d="M 432 329 C 432 319.6111584 480.5770992 312 540.5 312 C 600.4229008 312 649 319.6111584 649 329 C 649 338.3888416 600.4229008 346 540.5 346 C 480.5770992 346 432 338.3888416 432 329 Z" stroke-miterlimit="10"/></g><g transform="translate(-38,-62) scale(1,1)"><g><path fill="none" stroke="none"/><text fill="#000000" stroke="none" font-family="Arial" font-size="13px" font-style="normal" font-weight="bold" text-decoration="none" x="474.373291015625" y="336">Navigate to destination</text></g></g><g transform="translate(-38,-62) scale(1,1)"><path fill="none" stroke="#000000" d="M 145 316 L 255 293" stroke-miterlimit="10"/></g><g transform="translate(-38,-62) scale(1,1)"><path fill="none" stroke="#000000" d="M 145 336 L 269 359" stroke-miterlimit="10"/></g><g transform="translate(-38,-62) scale(1,1)"><path fill="none" stroke="#000000" d="M 426 298 L 473 311" stroke-miterlimit="10"/></g><g transform="translate(-38,-62) scale(1,1)"><path fill="none" stroke="#000000" d="M 703 305 L 650 313" stroke-miterlimit="10"/></g><g transform="translate(-38,-62) scale(1,1)"><path fill="none" stroke="#000000" d="M 687 396 L 486 384" stroke-miterlimit="10"/></g><g transform="translate(-38,-62) scale(1,1)"><path fill="#C0C0C0" stroke="none" d="M 519 264 C 519 254.6111584 541.6096176 247 569.5 247 C 597.3903824 247 620 254.6111584 620 264 C 620 273.3888416 597.3903824 281 569.5 281 C 541.6096176 281 519 273.3888416 519 264 Z" opacity="0.2"/></g><g transform="translate(-38,-62) scale(1,1)"><path fill="#ffffff" stroke="none" d="M 512 257 C 512 247.6111584 534.6096176 240 562.5 240 C 590.3903824 240 613 247.6111584 613 257 C 613 266.3888416 590.3903824 274 562.5 274 C 534.6096176 274 512 266.3888416 512 257 Z"/></g><g transform="translate(-38,-62) scale(1,1)"><path fill="none" stroke="#000000" d="M 512 257 C 512 247.6111584 534.6096176 240 562.5 240 C 590.3903824 240 613 247.6111584 613 257 C 613 266.3888416 590.3903824 274 562.5 274 C 534.6096176 274 512 266.3888416 512 257 Z" stroke-miterlimit="10"/></g><g transform="translate(-38,-62) scale(1,1)"><g><path fill="none" stroke="none"/><text fill="#000000" stroke="none" font-family="Arial" font-size="13px" font-style="normal" font-weight="bold" text-decoration="none" x="535.04638671875" y="264">view map</text></g></g><g transform="translate(-38,-62) scale(1,1)"><path fill="none" stroke="#000000" d="M 546 311 L 557 275" stroke-miterlimit="10"/></g><g transform="translate(-38,-62) scale(1,1)"><path fill="#C0C0C0" stroke="none" d="M 311 216 C 311 206.6111584 345.0263552 199 387 199 C 428.9736448 199 463 206.6111584 463 216 C 463 225.3888416 428.9736448 233 387 233 C 345.0263552 233 311 225.3888416 311 216 Z" opacity="0.2"/></g><g transform="translate(-38,-62) scale(1,1)"><path fill="#ffffff" stroke="none" d="M 304 209 C 304 199.6111584 338.0263552 192 380 192 C 421.9736448 192 456 199.6111584 456 209 C 456 218.3888416 421.9736448 226 380 226 C 338.0263552 226 304 218.3888416 304 209 Z"/></g><g transform="translate(-38,-62) scale(1,1)"><path fill="none" stroke="#000000" d="M 304 209 C 304 199.6111584 338.0263552 192 380 192 C 421.9736448 192 456 199.6111584 456 209 C 456 218.3888416 421.9736448 226 380 226 C 338.0263552 226 304 218.3888416 304 209 Z" stroke-miterlimit="10"/></g><g transform="translate(-38,-62) scale(1,1)"><g><path fill="none" stroke="none"/><text fill="#000000" stroke="none" font-family="Arial" font-size="13px" font-style="normal" font-weight="bold" text-decoration="none" x="334.10009765625" y="216">chose language</text></g></g><g transform="translate(-38,-62) scale(1,1)"><path fill="none" stroke="#000000" d="M 136 287 L 216 208 L 303 209" stroke-miterlimit="10"/></g><g transform="translate(-38,-62) scale(1,1)"><path fill="#C0C0C0" stroke="none" d="M 271 456 C 271 446.6111584 316.890808 439 373.5 439 C 430.109192 439 476 446.6111584 476 456 C 476 465.3888416 430.109192 473 373.5 473 C 316.890808 473 271 465.3888416 271 456 Z" opacity="0.2"/></g><g transform="translate(-38,-62) scale(1,1)"><path fill="#ffffff" stroke="none" d="M 264 449 C 264 439.6111584 309.890808 432 366.5 432 C 423.109192 432 469 439.6111584 469 449 C 469 458.3888416 423.109192 466 366.5 466 C 309.890808 466 264 458.3888416 264 449 Z"/></g><g transform="translate(-38,-62) scale(1,1)"><path fill="none" stroke="#000000" d="M 264 449 C 264 439.6111584 309.890808 432 366.5 432 C 423.109192 432 469 439.6111584 469 449 C 469 458.3888416 423.109192 466 366.5 466 C 309.890808 466 264 458.3888416 264 449 Z" stroke-miterlimit="10"/></g><g transform="translate(-38,-62) scale(1,1)"><g><path fill="none" stroke="none"/><text fill="#000000" stroke="none" font-family="Arial" font-size="13px" font-style="normal" font-weight="bold" text-decoration="none" x="304.353271484375" y="456">search for destination</text></g></g><g transform="translate(-38,-62) scale(1,1)"><path fill="none" stroke="#000000" d="M 145 349 L 326 431" stroke-miterlimit="10"/></g><g transform="translate(-38,-62) scale(1,1)"><path fill="none" stroke="#000000" d="M 470 435 L 687 407" stroke-miterlimit="10"/></g><g transform="translate(-38,-62) scale(1,1)"><path fill="#C0C0C0" stroke="none" d="M 319 152 C 319 142.6111584 345.6390544 135 378.5 135 C 411.3609456 135 438 142.6111584 438 152 C 438 161.3888416 411.3609456 169 378.5 169 C 345.6390544 169 319 161.3888416 319 152 Z" opacity="0.2"/></g><g transform="translate(-38,-62) scale(1,1)"><path fill="#ffffff" stroke="none" d="M 312 145 C 312 135.6111584 338.6390544 128 371.5 128 C 404.3609456 128 431 135.6111584 431 145 C 431 154.3888416 404.3609456 162 371.5 162 C 338.6390544 162 312 154.3888416 312 145 Z"/></g><g transform="translate(-38,-62) scale(1,1)"><path fill="none" stroke="#000000" d="M 312 145 C 312 135.6111584 338.6390544 128 371.5 128 C 404.3609456 128 431 135.6111584 431 145 C 431 154.3888416 404.3609456 162 371.5 162 C 338.6390544 162 312 154.3888416 312 145 Z" stroke-miterlimit="10"/></g><g transform="translate(-38,-62) scale(1,1)"><g><path fill="none" stroke="none"/><text fill="#000000" stroke="none" font-family="Arial" font-size="13px" font-style="normal" font-weight="bold" text-decoration="none" x="336.083251953125" y="152">get web app</text></g></g><g transform="translate(-38,-62) scale(1,1)"><path fill="#ffffff" stroke="none" d="M 731.8661374289773 169.68 C 731.8661374289773 164.886167936 735.7519797539227 161 740.54541015625 161 C 745.3388405585773 161 749.2246828835227 164.886167936 749.2246828835227 169.68 C 749.2246828835227 174.47383206400002 745.3388405585773 178.36 740.54541015625 178.36 C 735.7519797539227 178.36 731.8661374289773 174.47383206400002 731.8661374289773 169.68 Z"/></g><g transform="translate(-38,-62) scale(1,1)"><path fill="none" stroke="#000000" d="M 731.8661374289773 169.68 C 731.8661374289773 164.886167936 735.7519797539227 161 740.54541015625 161 C 745.3388405585773 161 749.2246828835227 164.886167936 749.2246828835227 169.68 C 749.2246828835227 174.47383206400002 745.3388405585773 178.36 740.54541015625 178.36 C 735.7519797539227 178.36 731.8661374289773 174.47383206400002 731.8661374289773 169.68 Z" stroke-miterlimit="10"/></g><g transform="translate(-38,-62) scale(1,1)"><path fill="none" stroke="#000000" d="M 740.54541015625 178.36 L 740.54541015625 195.64" stroke-miterlimit="10"/></g><g transform="translate(-38,-62) scale(1,1)"><path fill="none" stroke="#000000" d="M 731.3555919744318 184.84 L 749.7352283380682 184.84" stroke-miterlimit="10"/></g><g transform="translate(-38,-62) scale(1,1)"><path fill="none" stroke="#000000" d="M 740.54541015625 195.64 L 727.7817737926136 213" stroke-miterlimit="10"/></g><g transform="translate(-38,-62) scale(1,1)"><path fill="none" stroke="#000000" d="M 740.54541015625 195.64 L 753.3090465198864 213" stroke-miterlimit="10"/></g><g transform="translate(-38,-62) scale(1,1)"><g><path fill="none" stroke="none"/><text fill="#000000" stroke="none" font-family="Arial" font-size="13px" font-style="normal" font-weight="bold" text-decoration="none" x="719.947265625" y="233.5">college</text></g></g><g transform="translate(-38,-62) scale(1,1)"><path fill="none" stroke="#000000" d="M 687 216 L 614 240" stroke-miterlimit="10" stroke-dasharray="3"/></g><g transform="translate(-38,-62) scale(1,1)"><path fill="none" stroke="#000000" d="M 111 287 L 152 176 L 311 153" stroke-miterlimit="10"/></g><g transform="translate(-38,-62) scale(1,1)"><path fill="none" stroke="#000000" d="M 432 154 L 687 191" stroke-miterlimit="10"/></g></g></svg>