<svg version="1.1" xmlns="http://www.w3.org/2000/svg" xmlns:xlink="http://www.w3.org/1999/xlink" width="737.919921875" height="428"><defs/><g><g transform="translate(-118,-62) scale(1,1)"><rect fill="#C0C0C0" stroke="none" x="247" y="79" width="423" height="408" opacity="0.2"/></g><g transform="translate(-118,-62) scale(1,1)"><rect fill="#ffffff" stroke="none" x="240" y="72" width="423" height="408"/></g><g transform="translate(-118,-62) scale(1,1)"><path fill="none" stroke="#000000" d="M 240 72 L 663 72 L 663 480 L 240 480 L 240 72 Z Z" stroke-miterlimit="10"/></g><g transform="translate(-118,-62) scale(1,1)"><g><path fill="none" stroke="none"/><text fill="#000000" stroke="none" font-family="Arial" font-size="13px" font-style="normal" font-weight="bold" text-decoration="none" x="401.991455078125" y="91.5">indoor navigation</text></g></g><g transform="translate(-118,-62) scale(1,1)"><path fill="#ffffff" stroke="none" d="M 167.53068821022728 265.68 C 167.53068821022728 260.886167936 171.41653053517274 257 176.2099609375 257 C 181.00339133982726 257 184.88923366477272 260.886167936 184.88923366477272 265.68 C 184.88923366477272 270.473832064 181.00339133982726 274.36 176.2099609375 274.36 C 171.41653053517274 274.36 167.53068821022728 270.473832064 167.53068821022728 265.68 Z"/></g><g transform="translate(-118,-62) scale(1,1)"><path fill="none" stroke="#000000" d="M 167.53068821022728 265.68 C 167.53068821022728 260.886167936 171.41653053517274 257 176.2099609375 257 C 181.00339133982726 257 184.88923366477272 260.886167936 184.88923366477272 265.68 C 184.88923366477272 270.473832064 181.00339133982726 274.36 176.2099609375 274.36 C 171.41653053517274 274.36 167.53068821022728 270.473832064 167.53068821022728 265.68 Z" stroke-miterlimit="10"/></g><g transform="translate(-118,-62) scale(1,1)"><path fill="none" stroke="#000000" d="M 176.2099609375 274.36 L 176.2099609375 291.64" stroke-miterlimit="10"/></g><g transform="translate(-118,-62) scale(1,1)"><path fill="none" stroke="#000000" d="M 167.02014275568183 280.84 L 185.39977911931817 280.84" stroke-miterlimit="10"/></g><g transform="translate(-118,-62) scale(1,1)"><path fill="none" stroke="#000000" d="M 176.2099609375 291.64 L 163.44632457386365 309" stroke-miterlimit="10"/></g><g transform="translate(-118,-62) scale(1,1)"><path fill="none" stroke="#000000" d="M 176.2099609375 291.64 L 188.97359730113635 309" stroke-miterlimit="10"/></g><g transform="translate(-118,-62) scale(1,1)"><g><path fill="none" stroke="none"/><text fill="#000000" stroke="none" font-family="Arial" font-size="13px" font-style="normal" font-weight="bold" text-decoration="none" x="159.236328125" y="329.5">visitor</text></g></g><g transform="translate(-118,-62) scale(1,1)"><path fill="#C0C0C0" stroke="none" d="M 279 210.5 C 279 190.8938896 316.8319344 175 363.5 175 C 410.1680656 175 448 190.8938896 448 210.5 C 448 230.1061104 410.1680656 246 363.5 246 C 316.8319344 246 279 230.1061104 279 210.5 Z" opacity="0.2"/></g><g transform="translate(-118,-62) scale(1,1)"><path fill="#ffffff" stroke="none" d="M 272 203.5 C 272 183.8938896 309.8319344 168 356.5 168 C 403.1680656 168 441 183.8938896 441 203.5 C 441 223.1061104 403.1680656 239 356.5 239 C 309.8319344 239 272 223.1061104 272 203.5 Z"/></g><g transform="translate(-118,-62) scale(1,1)"><path fill="none" stroke="#000000" d="M 272 203.5 C 272 183.8938896 309.8319344 168 356.5 168 C 403.1680656 168 441 183.8938896 441 203.5 C 441 223.1061104 403.1680656 239 356.5 239 C 309.8319344 239 272 223.1061104 272 203.5 Z" stroke-miterlimit="10"/></g><g transform="translate(-118,-62) scale(1,1)"><g><path fill="none" stroke="none"/><text fill="#000000" stroke="none" font-family="Arial" font-size="13px" font-style="normal" font-weight="bold" text-decoration="none" x="305.9091796875" y="210.5">chose destination</text></g></g><g transform="translate(-118,-62) scale(1,1)"><path fill="#C0C0C0" stroke="none" d="M 271 360 C 271 350.6111584 324.0542512 343 389.5 343 C 454.9457488 343 508 350.6111584 508 360 C 508 369.3888416 454.9457488 377 389.5 377 C 324.0542512 377 271 369.3888416 271 360 Z" opacity="0.2"/></g><g transform="translate(-118,-62) scale(1,1)"><path fill="#ffffff" stroke="none" d="M 264 353 C 264 343.6111584 317.0542512 336 382.5 336 C 447.9457488 336 501 343.6111584 501 353 C 501 362.3888416 447.9457488 370 382.5 370 C 317.0542512 370 264 362.3888416 264 353 Z"/></g><g transform="translate(-118,-62) scale(1,1)"><path fill="none" stroke="#000000" d="M 264 353 C 264 343.6111584 317.0542512 336 382.5 336 C 447.9457488 336 501 343.6111584 501 353 C 501 362.3888416 447.9457488 370 382.5 370 C 317.0542512 370 264 362.3888416 264 353 Z" stroke-miterlimit="10"/></g><g transform="translate(-118,-62) scale(1,1)"><g><path fill="none" stroke="none"/><text fill="#000000" stroke="none" font-family="Arial" font-size="13px" font-style="normal" font-weight="bold" text-decoration="none" x="318.185546875" y="360">view destination menu</text></g></g><g transform="translate(-118,-62) scale(1,1)"><path fill="#ffffff" stroke="none" d="M 766.2806882102273 265.68 C 766.2806882102273 260.886167936 770.1665305351727 257 774.9599609375 257 C 779.7533913398273 257 783.6392336647727 260.886167936 783.6392336647727 265.68 C 783.6392336647727 270.473832064 779.7533913398273 274.36 774.9599609375 274.36 C 770.1665305351727 274.36 766.2806882102273 270.473832064 766.2806882102273 265.68 Z"/></g><g transform="translate(-118,-62) scale(1,1)"><path fill="none" stroke="#000000" d="M 766.2806882102273 265.68 C 766.2806882102273 260.886167936 770.1665305351727 257 774.9599609375 257 C 779.7533913398273 257 783.6392336647727 260.886167936 783.6392336647727 265.68 C 783.6392336647727 270.473832064 779.7533913398273 274.36 774.9599609375 274.36 C 770.1665305351727 274.36 766.2806882102273 270.473832064 766.2806882102273 265.68 Z" stroke-miterlimit="10"/></g><g transform="translate(-118,-62) scale(1,1)"><path fill="none" stroke="#000000" d="M 774.9599609375 274.36 L 774.9599609375 291.64" stroke-miterlimit="10"/></g><g transform="translate(-118,-62) scale(1,1)"><path fill="none" stroke="#000000" d="M 765.7701427556818 280.84 L 784.1497791193182 280.84" stroke-miterlimit="10"/></g><g transform="translate(-118,-62) scale(1,1)"><path fill="none" stroke="#000000" d="M 774.9599609375 291.64 L 762.1963245738636 309" stroke-miterlimit="10"/></g><g transform="translate(-118,-62) scale(1,1)"><path fill="none" stroke="#000000" d="M 774.9599609375 291.64 L 787.7235973011364 309" stroke-miterlimit="10"/></g><g transform="translate(-118,-62) scale(1,1)"><g><path fill="none" stroke="none"/><text fill="#000000" stroke="none" font-family="Arial" font-size="13px" font-style="normal" font-weight="bold" text-decoration="none" x="712.438720703125" y="329.5">google map database</text></g></g><g transform="translate(-118,-62) scale(1,1)"><path fill="#ffffff" stroke="none" d="M 738.7247800071023 369.68 C 738.7247800071023 364.886167936 742.6106223320477 361 747.404052734375 361 C 752.1974831367023 361 756.0833254616477 364.886167936 756.0833254616477 369.68 C 756.0833254616477 374.473832064 752.1974831367023 378.36 747.404052734375 378.36 C 742.6106223320477 378.36 738.7247800071023 374.473832064 738.7247800071023 369.68 Z"/></g><g transform="translate(-118,-62) scale(1,1)"><path fill="none" stroke="#000000" d="M 738.7247800071023 369.68 C 738.7247800071023 364.886167936 742.6106223320477 361 747.404052734375 361 C 752.1974831367023 361 756.0833254616477 364.886167936 756.0833254616477 369.68 C 756.0833254616477 374.473832064 752.1974831367023 378.36 747.404052734375 378.36 C 742.6106223320477 378.36 738.7247800071023 374.473832064 738.7247800071023 369.68 Z" stroke-miterlimit="10"/></g><g transform="translate(-118,-62) scale(1,1)"><path fill="none" stroke="#000000" d="M 747.404052734375 378.36 L 747.404052734375 395.64" stroke-miterlimit="10"/></g><g transform="translate(-118,-62) scale(1,1)"><path fill="none" stroke="#000000" d="M 738.2142345525568 384.84 L 756.5938709161932 384.84" stroke-miterlimit="10"/></g><g transform="translate(-118,-62) scale(1,1)"><path fill="none" stroke="#000000" d="M 747.404052734375 395.64 L 734.6404163707386 413" stroke-miterlimit="10"/></g><g transform="translate(-118,-62) scale(1,1)"><path fill="none" stroke="#000000" d="M 747.404052734375 395.64 L 760.1676890980114 413" stroke-miterlimit="10"/></g><g transform="translate(-118,-62) scale(1,1)"><g><path fill="none" stroke="none"/><text fill="#000000" stroke="none" font-family="Arial" font-size="13px" font-style="normal" font-weight="bold" text-decoration="none" x="696.4482421875" y="433.5">location database</text></g></g><g transform="translate(-118,-62) scale(1,1)"><path fill="#C0C0C0" stroke="none" d="M 423 280 C 423 270.6111584 471.5770992 263 531.5 263 C 591.4229008 263 640 270.6111584 640 280 C 640 289.3888416 591.4229008 297 531.5 297 C 471.5770992 297 423 289.3888416 423 280 Z" opacity="0.2"/></g><g transform="translate(-118,-62) scale(1,1)"><path fill="#ffffff" stroke="none" d="M 416 273 C 416 263.6111584 464.5770992 256 524.5 256 C 584.4229008 256 633 263.6111584 633 273 C 633 282.3888416 584.4229008 290 524.5 290 C 464.5770992 290 416 282.3888416 416 273 Z"/></g><g transform="translate(-118,-62) scale(1,1)"><path fill="none" stroke="#000000" d="M 416 273 C 416 263.6111584 464.5770992 256 524.5 256 C 584.4229008 256 633 263.6111584 633 273 C 633 282.3888416 584.4229008 290 524.5 290 C 464.5770992 290 416 282.3888416 416 273 Z" stroke-miterlimit="10"/></g><g transform="translate(-118,-62) scale(1,1)"><g><path fill="none" stroke="none"/><text fill="#000000" stroke="none" font-family="Arial" font-size="13px" font-style="normal" font-weight="bold" text-decoration="none" x="458.373291015625" y="280">Navigate to destination</text></g></g><g transform="translate(-118,-62) scale(1,1)"><path fill="none" stroke="#000000" d="M 225 270 L 284 240" stroke-miterlimit="10"/></g><g transform="translate(-118,-62) scale(1,1)"><path fill="none" stroke="#000000" d="M 225 309 L 318 335" stroke-miterlimit="10"/></g><g transform="translate(-118,-62) scale(1,1)"><path fill="none" stroke="#000000" d="M 442 239 L 481 255" stroke-miterlimit="10"/></g><g transform="translate(-118,-62) scale(1,1)"><path fill="none" stroke="#000000" d="M 757 255 L 720 168 L 442 195" stroke-miterlimit="10"/></g><g transform="translate(-118,-62) scale(1,1)"><path fill="none" stroke="#000000" d="M 687 391 L 502 368" stroke-miterlimit="10"/></g><g transform="translate(-118,-62) scale(1,1)"><path fill="#C0C0C0" stroke="none" d="M 567 344 C 567 334.6111584 589.6096176 327 617.5 327 C 645.3903824 327 668 334.6111584 668 344 C 668 353.3888416 645.3903824 361 617.5 361 C 589.6096176 361 567 353.3888416 567 344 Z" opacity="0.2"/></g><g transform="translate(-118,-62) scale(1,1)"><path fill="#ffffff" stroke="none" d="M 560 337 C 560 327.6111584 582.6096176 320 610.5 320 C 638.3903824 320 661 327.6111584 661 337 C 661 346.3888416 638.3903824 354 610.5 354 C 582.6096176 354 560 346.3888416 560 337 Z"/></g><g transform="translate(-118,-62) scale(1,1)"><path fill="none" stroke="#000000" d="M 560 337 C 560 327.6111584 582.6096176 320 610.5 320 C 638.3903824 320 661 327.6111584 661 337 C 661 346.3888416 638.3903824 354 610.5 354 C 582.6096176 354 560 346.3888416 560 337 Z" stroke-miterlimit="10"/></g><g transform="translate(-118,-62) scale(1,1)"><g><path fill="none" stroke="none"/><text fill="#000000" stroke="none" font-family="Arial" font-size="13px" font-style="normal" font-weight="bold" text-decoration="none" x="583.04638671875" y="344">view map</text></g></g><g transform="translate(-118,-62) scale(1,1)"><path fill="none" stroke="#000000" d="M 548 291 L 586 319" stroke-miterlimit="10"/></g><g transform="translate(-118,-62) scale(1,1)"><path fill="#C0C0C0" stroke="none" d="M 335 128 C 335 118.6111584 369.0263552 111 411 111 C 452.9736448 111 487 118.6111584 487 128 C 487 137.3888416 452.9736448 145 411 145 C 369.0263552 145 335 137.3888416 335 128 Z" opacity="0.2"/></g><g transform="translate(-118,-62) scale(1,1)"><path fill="#ffffff" stroke="none" d="M 328 121 C 328 111.6111584 362.0263552 104 404 104 C 445.9736448 104 480 111.6111584 480 121 C 480 130.3888416 445.9736448 138 404 138 C 362.0263552 138 328 130.3888416 328 121 Z"/></g><g transform="translate(-118,-62) scale(1,1)"><path fill="none" stroke="#000000" d="M 328 121 C 328 111.6111584 362.0263552 104 404 104 C 445.9736448 104 480 111.6111584 480 121 C 480 130.3888416 445.9736448 138 404 138 C 362.0263552 138 328 130.3888416 328 121 Z" stroke-miterlimit="10"/></g><g transform="translate(-118,-62) scale(1,1)"><g><path fill="none" stroke="none"/><text fill="#000000" stroke="none" font-family="Arial" font-size="13px" font-style="normal" font-weight="bold" text-decoration="none" x="358.10009765625" y="128">chose language</text></g></g><g transform="translate(-118,-62) scale(1,1)"><path fill="none" stroke="#000000" d="M 189 255 L 232 120 L 327 121" stroke-miterlimit="10"/></g></g></svg>
