<svg version="1.1" xmlns="http://www.w3.org/2000/svg" xmlns:xlink="http://www.w3.org/1999/xlink" width="890.4599609375" height="648"><defs/><g><g transform="translate(-62,10) scale(1,1)"><rect fill="#C0C0C0" stroke="none" x="129" y="207" width="156.68701171875" height="92" opacity="0.2"/></g><g transform="translate(-62,10) scale(1,1)"><rect fill="#ffffff" stroke="none" x="122" y="200" width="156.68701171875" height="92"/></g><g transform="translate(-62,10) scale(1,1)"><path fill="none" stroke="#000000" d="M 122 200 L 278.68701171875 200 L 278.68701171875 292 L 122 292 L 122 200 Z Z" stroke-miterlimit="10"/></g><g transform="translate(-62,10) scale(1,1)"><rect fill="#ffffff" stroke="none" x="112" y="207" width="20" height="10"/></g><g transform="translate(-62,10) scale(1,1)"><path fill="none" stroke="#000000" d="M 112 207 L 132 207 L 132 217 L 112 217 L 112 207 Z Z" stroke-miterlimit="10"/></g><g transform="translate(-62,10) scale(1,1)"><rect fill="#ffffff" stroke="none" x="112" y="227" width="20" height="10"/></g><g transform="translate(-62,10) scale(1,1)"><path fill="none" stroke="#000000" d="M 112 227 L 132 227 L 132 237 L 112 237 L 112 227 Z Z" stroke-miterlimit="10"/></g><g transform="translate(-62,10) scale(1,1)"><path fill="none" stroke="#000000" d="M 132 225 L 278.68701171875 225" stroke-miterlimit="10"/></g><g transform="translate(-62,10) scale(1,1)"><g><path fill="none" stroke="none"/><text fill="#000000" stroke="none" font-family="Arial" font-size="13px" font-style="normal" font-weight="bold" text-decoration="none" x="174.989013671875" y="219.5">main page</text></g></g><g transform="translate(-62,10) scale(1,1)"><g><path fill="none" stroke="none"/><text fill="#000000" stroke="none" font-family="Arial" font-size="13px" font-style="normal" font-weight="normal" text-decoration="none" x="137" y="242.5">+chose language</text></g></g><g transform="translate(-62,10) scale(1,1)"><g><path fill="none" stroke="none"/><text fill="#000000" stroke="none" font-family="Arial" font-size="13px" font-style="normal" font-weight="normal" text-decoration="none" x="137" y="257.5">+view destinations</text></g></g><g transform="translate(-62,10) scale(1,1)"><g><path fill="none" stroke="none"/><text fill="#000000" stroke="none" font-family="Arial" font-size="13px" font-style="normal" font-weight="normal" text-decoration="none" x="137" y="272.5">+navigate to destination</text></g></g><g transform="translate(-62,10) scale(1,1)"><g><path fill="none" stroke="none"/><text fill="#000000" stroke="none" font-family="Arial" font-size="13px" font-style="normal" font-weight="normal" text-decoration="none" x="137" y="287.5">+search destination</text></g></g><g transform="translate(-62,10) scale(1,1)"><rect fill="#C0C0C0" stroke="none" x="305" y="95" width="151.20263671875" height="44" opacity="0.2"/></g><g transform="translate(-62,10) scale(1,1)"><rect fill="#ffffff" stroke="none" x="298" y="88" width="151.20263671875" height="44"/></g><g transform="translate(-62,10) scale(1,1)"><path fill="none" stroke="#000000" d="M 298 88 L 449.20263671875 88 L 449.20263671875 132 L 298 132 L 298 88 Z Z" stroke-miterlimit="10"/></g><g transform="translate(-62,10) scale(1,1)"><rect fill="#ffffff" stroke="none" x="288" y="95" width="20" height="10"/></g><g transform="translate(-62,10) scale(1,1)"><path fill="none" stroke="#000000" d="M 288 95 L 308 95 L 308 105 L 288 105 L 288 95 Z Z" stroke-miterlimit="10"/></g><g transform="translate(-62,10) scale(1,1)"><rect fill="#ffffff" stroke="none" x="288" y="115" width="20" height="10"/></g><g transform="translate(-62,10) scale(1,1)"><path fill="none" stroke="#000000" d="M 288 115 L 308 115 L 308 125 L 288 125 L 288 115 Z Z" stroke-miterlimit="10"/></g><g transform="translate(-62,10) scale(1,1)"><g><path fill="none" stroke="none"/><text fill="#000000" stroke="none" font-family="Arial" font-size="13px" font-style="normal" font-weight="bold" text-decoration="none" x="316.435546875" y="107.5">chose language page</text></g></g><g transform="translate(-62,10) scale(1,1)"><rect fill="#C0C0C0" stroke="none" x="225" y="415" width="154.08447265625" height="44" opacity="0.2"/></g><g transform="translate(-62,10) scale(1,1)"><rect fill="#ffffff" stroke="none" x="218" y="408" width="154.08447265625" height="44"/></g><g transform="translate(-62,10) scale(1,1)"><path fill="none" stroke="#000000" d="M 218 408 L 372.08447265625 408 L 372.08447265625 452 L 218 452 L 218 408 Z Z" stroke-miterlimit="10"/></g><g transform="translate(-62,10) scale(1,1)"><rect fill="#ffffff" stroke="none" x="208" y="415" width="20" height="10"/></g><g transform="translate(-62,10) scale(1,1)"><path fill="none" stroke="#000000" d="M 208 415 L 228 415 L 228 425 L 208 425 L 208 415 Z Z" stroke-miterlimit="10"/></g><g transform="translate(-62,10) scale(1,1)"><rect fill="#ffffff" stroke="none" x="208" y="435" width="20" height="10"/></g><g transform="translate(-62,10) scale(1,1)"><path fill="none" stroke="#000000" d="M 208 435 L 228 435 L 228 445 L 208 445 L 208 435 Z Z" stroke-miterlimit="10"/></g><g transform="translate(-62,10) scale(1,1)"><g><path fill="none" stroke="none"/><text fill="#000000" stroke="none" font-family="Arial" font-size="13px" font-style="normal" font-weight="bold" text-decoration="none" x="237.52734375" y="427.5">view destination page</text></g></g><g transform="translate(-62,10) scale(1,1)"><rect fill="#C0C0C0" stroke="none" x="457" y="239" width="163.47265625" height="44" opacity="0.2"/></g><g transform="translate(-62,10) scale(1,1)"><rect fill="#ffffff" stroke="none" x="450" y="232" width="163.47265625" height="44"/></g><g transform="translate(-62,10) scale(1,1)"><path fill="none" stroke="#000000" d="M 450 232 L 613.47265625 232 L 613.47265625 276 L 450 276 L 450 232 Z Z" stroke-miterlimit="10"/></g><g transform="translate(-62,10) scale(1,1)"><rect fill="#ffffff" stroke="none" x="440" y="239" width="20" height="10"/></g><g transform="translate(-62,10) scale(1,1)"><path fill="none" stroke="#000000" d="M 440 239 L 460 239 L 460 249 L 440 249 L 440 239 Z Z" stroke-miterlimit="10"/></g><g transform="translate(-62,10) scale(1,1)"><rect fill="#ffffff" stroke="none" x="440" y="259" width="20" height="10"/></g><g transform="translate(-62,10) scale(1,1)"><path fill="none" stroke="#000000" d="M 440 259 L 460 259 L 460 269 L 440 269 L 440 259 Z Z" stroke-miterlimit="10"/></g><g transform="translate(-62,10) scale(1,1)"><g><path fill="none" stroke="none"/><text fill="#000000" stroke="none" font-family="Arial" font-size="13px" font-style="normal" font-weight="bold" text-decoration="none" x="469.879638671875" y="251.5">chose destination page</text></g></g><g transform="translate(-62,10) scale(1,1)"><rect fill="#C0C0C0" stroke="none" x="89" y="591" width="141.09716796875" height="44" opacity="0.2"/></g><g transform="translate(-62,10) scale(1,1)"><rect fill="#ffffff" stroke="none" x="82" y="584" width="141.09716796875" height="44"/></g><g transform="translate(-62,10) scale(1,1)"><path fill="none" stroke="#000000" d="M 82 584 L 223.09716796875 584 L 223.09716796875 628 L 82 628 L 82 584 Z Z" stroke-miterlimit="10"/></g><g transform="translate(-62,10) scale(1,1)"><rect fill="#ffffff" stroke="none" x="72" y="591" width="20" height="10"/></g><g transform="translate(-62,10) scale(1,1)"><path fill="none" stroke="#000000" d="M 72 591 L 92 591 L 92 601 L 72 601 L 72 591 Z Z" stroke-miterlimit="10"/></g><g transform="translate(-62,10) scale(1,1)"><rect fill="#ffffff" stroke="none" x="72" y="611" width="20" height="10"/></g><g transform="translate(-62,10) scale(1,1)"><path fill="none" stroke="#000000" d="M 72 611 L 92 611 L 92 621 L 72 621 L 72 611 Z Z" stroke-miterlimit="10"/></g><g transform="translate(-62,10) scale(1,1)"><g><path fill="none" stroke="none"/><text fill="#000000" stroke="none" font-family="Arial" font-size="13px" font-style="normal" font-weight="bold" text-decoration="none" x="101.543212890625" y="603.5">search destinations</text></g></g><g transform="translate(-62,10) scale(1,1)"><rect fill="#C0C0C0" stroke="none" x="481" y="7" width="149.03173828125" height="44" opacity="0.2"/></g><g transform="translate(-62,10) scale(1,1)"><rect fill="#ffffff" stroke="none" x="474" y="0" width="149.03173828125" height="44"/></g><g transform="translate(-62,10) scale(1,1)"><path fill="none" stroke="#000000" d="M 474 0 L 623.03173828125 0 L 623.03173828125 44 L 474 44 L 474 0 Z Z" stroke-miterlimit="10"/></g><g transform="translate(-62,10) scale(1,1)"><rect fill="#ffffff" stroke="none" x="464" y="7" width="20" height="10"/></g><g transform="translate(-62,10) scale(1,1)"><path fill="none" stroke="#000000" d="M 464 7 L 484 7 L 484 17 L 464 17 L 464 7 Z Z" stroke-miterlimit="10"/></g><g transform="translate(-62,10) scale(1,1)"><rect fill="#ffffff" stroke="none" x="464" y="27" width="20" height="10"/></g><g transform="translate(-62,10) scale(1,1)"><path fill="none" stroke="#000000" d="M 464 27 L 484 27 L 484 37 L 464 37 L 464 27 Z Z" stroke-miterlimit="10"/></g><g transform="translate(-62,10) scale(1,1)"><g><path fill="none" stroke="none"/><text fill="#000000" stroke="none" font-family="Arial" font-size="13px" font-style="normal" font-weight="bold" text-decoration="none" x="493.530517578125" y="19.5">stored languages file</text></g></g><g transform="translate(-62,10) scale(1,1)"><rect fill="#C0C0C0" stroke="none" x="505" y="95" width="164.22802734375" height="44" opacity="0.2"/></g><g transform="translate(-62,10) scale(1,1)"><rect fill="#ffffff" stroke="none" x="498" y="88" width="164.22802734375" height="44"/></g><g transform="translate(-62,10) scale(1,1)"><path fill="none" stroke="#000000" d="M 498 88 L 662.22802734375 88 L 662.22802734375 132 L 498 132 L 498 88 Z Z" stroke-miterlimit="10"/></g><g transform="translate(-62,10) scale(1,1)"><rect fill="#ffffff" stroke="none" x="488" y="95" width="20" height="10"/></g><g transform="translate(-62,10) scale(1,1)"><path fill="none" stroke="#000000" d="M 488 95 L 508 95 L 508 105 L 488 105 L 488 95 Z Z" stroke-miterlimit="10"/></g><g transform="translate(-62,10) scale(1,1)"><rect fill="#ffffff" stroke="none" x="488" y="115" width="20" height="10"/></g><g transform="translate(-62,10) scale(1,1)"><path fill="none" stroke="#000000" d="M 488 115 L 508 115 L 508 125 L 488 125 L 488 115 Z Z" stroke-miterlimit="10"/></g><g transform="translate(-62,10) scale(1,1)"><g><path fill="none" stroke="none"/><text fill="#000000" stroke="none" font-family="Arial" font-size="13px" font-style="normal" font-weight="bold" text-decoration="none" x="517.90185546875" y="107.5">available languages list</text></g></g><g transform="translate(-62,10) scale(1,1)"><rect fill="#C0C0C0" stroke="none" x="425" y="167" width="124.46630859375" height="44" opacity="0.2"/></g><g transform="translate(-62,10) scale(1,1)"><rect fill="#ffffff" stroke="none" x="418" y="160" width="124.46630859375" height="44"/></g><g transform="translate(-62,10) scale(1,1)"><path fill="none" stroke="#000000" d="M 418 160 L 542.46630859375 160 L 542.46630859375 204 L 418 204 L 418 160 Z Z" stroke-miterlimit="10"/></g><g transform="translate(-62,10) scale(1,1)"><rect fill="#ffffff" stroke="none" x="408" y="167" width="20" height="10"/></g><g transform="translate(-62,10) scale(1,1)"><path fill="none" stroke="#000000" d="M 408 167 L 428 167 L 428 177 L 408 177 L 408 167 Z Z" stroke-miterlimit="10"/></g><g transform="translate(-62,10) scale(1,1)"><rect fill="#ffffff" stroke="none" x="408" y="187" width="20" height="10"/></g><g transform="translate(-62,10) scale(1,1)"><path fill="none" stroke="#000000" d="M 408 187 L 428 187 L 428 197 L 408 197 L 408 187 Z Z" stroke-miterlimit="10"/></g><g transform="translate(-62,10) scale(1,1)"><g><path fill="none" stroke="none"/><text fill="#000000" stroke="none" font-family="Arial" font-size="13px" font-style="normal" font-weight="bold" text-decoration="none" x="436.4482421875" y="179.5">current language</text></g></g><g transform="translate(-62,10) scale(1,1)"><rect fill="#C0C0C0" stroke="none" x="601" y="471" width="154.103515625" height="44" opacity="0.2"/></g><g transform="translate(-62,10) scale(1,1)"><rect fill="#ffffff" stroke="none" x="594" y="464" width="154.103515625" height="44"/></g><g transform="translate(-62,10) scale(1,1)"><path fill="none" stroke="#000000" d="M 594 464 L 748.103515625 464 L 748.103515625 508 L 594 508 L 594 464 Z Z" stroke-miterlimit="10"/></g><g transform="translate(-62,10) scale(1,1)"><rect fill="#ffffff" stroke="none" x="584" y="471" width="20" height="10"/></g><g transform="translate(-62,10) scale(1,1)"><path fill="none" stroke="#000000" d="M 584 471 L 604 471 L 604 481 L 584 481 L 584 471 Z Z" stroke-miterlimit="10"/></g><g transform="translate(-62,10) scale(1,1)"><rect fill="#ffffff" stroke="none" x="584" y="491" width="20" height="10"/></g><g transform="translate(-62,10) scale(1,1)"><path fill="none" stroke="#000000" d="M 584 491 L 604 491 L 604 501 L 584 501 L 584 491 Z Z" stroke-miterlimit="10"/></g><g transform="translate(-62,10) scale(1,1)"><g><path fill="none" stroke="none"/><text fill="#000000" stroke="none" font-family="Arial" font-size="13px" font-style="normal" font-weight="bold" text-decoration="none" x="613.898681640625" y="483.5">available destinations</text></g></g><g transform="translate(-62,10) scale(1,1)"><rect fill="#C0C0C0" stroke="none" x="313" y="327" width="212.58447265625" height="44" opacity="0.2"/></g><g transform="translate(-62,10) scale(1,1)"><rect fill="#ffffff" stroke="none" x="306" y="320" width="212.58447265625" height="44"/></g><g transform="translate(-62,10) scale(1,1)"><path fill="none" stroke="#000000" d="M 306 320 L 518.58447265625 320 L 518.58447265625 364 L 306 364 L 306 320 Z Z" stroke-miterlimit="10"/></g><g transform="translate(-62,10) scale(1,1)"><rect fill="#ffffff" stroke="none" x="296" y="327" width="20" height="10"/></g><g transform="translate(-62,10) scale(1,1)"><path fill="none" stroke="#000000" d="M 296 327 L 316 327 L 316 337 L 296 337 L 296 327 Z Z" stroke-miterlimit="10"/></g><g transform="translate(-62,10) scale(1,1)"><rect fill="#ffffff" stroke="none" x="296" y="347" width="20" height="10"/></g><g transform="translate(-62,10) scale(1,1)"><path fill="none" stroke="#000000" d="M 296 347 L 316 347 L 316 357 L 296 357 L 296 347 Z Z" stroke-miterlimit="10"/></g><g transform="translate(-62,10) scale(1,1)"><g><path fill="none" stroke="none"/><text fill="#000000" stroke="none" font-family="Arial" font-size="13px" font-style="normal" font-weight="bold" text-decoration="none" x="329.491455078125" y="339.5">stored destinations description</text></g></g><g transform="translate(-62,10) scale(1,1)"><rect fill="#C0C0C0" stroke="none" x="657" y="191" width="105.6708984375" height="44" opacity="0.2"/></g><g transform="translate(-62,10) scale(1,1)"><rect fill="#ffffff" stroke="none" x="650" y="184" width="105.6708984375" height="44"/></g><g transform="translate(-62,10) scale(1,1)"><path fill="none" stroke="#000000" d="M 650 184 L 755.6708984375 184 L 755.6708984375 228 L 650 228 L 650 184 Z Z" stroke-miterlimit="10"/></g><g transform="translate(-62,10) scale(1,1)"><rect fill="#ffffff" stroke="none" x="640" y="191" width="20" height="10"/></g><g transform="translate(-62,10) scale(1,1)"><path fill="none" stroke="#000000" d="M 640 191 L 660 191 L 660 201 L 640 201 L 640 191 Z Z" stroke-miterlimit="10"/></g><g transform="translate(-62,10) scale(1,1)"><rect fill="#ffffff" stroke="none" x="640" y="211" width="20" height="10"/></g><g transform="translate(-62,10) scale(1,1)"><path fill="none" stroke="#000000" d="M 640 211 L 660 211 L 660 221 L 640 221 L 640 211 Z Z" stroke-miterlimit="10"/></g><g transform="translate(-62,10) scale(1,1)"><g><path fill="none" stroke="none"/><text fill="#000000" stroke="none" font-family="Arial" font-size="13px" font-style="normal" font-weight="bold" text-decoration="none" x="676.0400390625" y="203.5">map object</text></g></g><g transform="translate(-62,10) scale(1,1)"><rect fill="#C0C0C0" stroke="none" x="785" y="103" width="107.16259765625" height="44" opacity="0.2"/></g><g transform="translate(-62,10) scale(1,1)"><rect fill="#ffffff" stroke="none" x="778" y="96" width="107.16259765625" height="44"/></g><g transform="translate(-62,10) scale(1,1)"><path fill="none" stroke="#000000" d="M 778 96 L 885.16259765625 96 L 885.16259765625 140 L 778 140 L 778 96 Z Z" stroke-miterlimit="10"/></g><g transform="translate(-62,10) scale(1,1)"><rect fill="#ffffff" stroke="none" x="768" y="103" width="20" height="10"/></g><g transform="translate(-62,10) scale(1,1)"><path fill="none" stroke="#000000" d="M 768 103 L 788 103 L 788 113 L 768 113 L 768 103 Z Z" stroke-miterlimit="10"/></g><g transform="translate(-62,10) scale(1,1)"><rect fill="#ffffff" stroke="none" x="768" y="123" width="20" height="10"/></g><g transform="translate(-62,10) scale(1,1)"><path fill="none" stroke="#000000" d="M 768 123 L 788 123 L 788 133 L 768 133 L 768 123 Z Z" stroke-miterlimit="10"/></g><g transform="translate(-62,10) scale(1,1)"><g><path fill="none" stroke="none"/><text fill="#000000" stroke="none" font-family="Arial" font-size="13px" font-style="normal" font-weight="bold" text-decoration="none" x="796.121337890625" y="115.5">routes service</text></g></g><g transform="translate(-62,10) scale(1,1)"><rect fill="#C0C0C0" stroke="none" x="825" y="207" width="124.4599609375" height="44" opacity="0.2"/></g><g transform="translate(-62,10) scale(1,1)"><rect fill="#ffffff" stroke="none" x="818" y="200" width="124.4599609375" height="44"/></g><g transform="translate(-62,10) scale(1,1)"><path fill="none" stroke="#000000" d="M 818 200 L 942.4599609375 200 L 942.4599609375 244 L 818 244 L 818 200 Z Z" stroke-miterlimit="10"/></g><g transform="translate(-62,10) scale(1,1)"><rect fill="#ffffff" stroke="none" x="808" y="207" width="20" height="10"/></g><g transform="translate(-62,10) scale(1,1)"><path fill="none" stroke="#000000" d="M 808 207 L 828 207 L 828 217 L 808 217 L 808 207 Z Z" stroke-miterlimit="10"/></g><g transform="translate(-62,10) scale(1,1)"><rect fill="#ffffff" stroke="none" x="808" y="227" width="20" height="10"/></g><g transform="translate(-62,10) scale(1,1)"><path fill="none" stroke="#000000" d="M 808 227 L 828 227 L 828 237 L 808 237 L 808 227 Z Z" stroke-miterlimit="10"/></g><g transform="translate(-62,10) scale(1,1)"><g><path fill="none" stroke="none"/><text fill="#000000" stroke="none" font-family="Arial" font-size="13px" font-style="normal" font-weight="bold" text-decoration="none" x="837.175048828125" y="219.5">waypoints object</text></g></g><g transform="translate(-62,10) scale(1,1)"><path fill="none" stroke="#000000" d="M 255 199 L 339 133" stroke-miterlimit="10" stroke-dasharray="3"/></g><g transform="translate(-62,10) scale(1,1)"><path fill="#FFFFFF" stroke="none" d="M 328.2192663617345 152.17748112294134 L 339 133 L 317.8163431901078 138.9373970863254"/></g><g transform="translate(-62,10) scale(1,1)"><path fill="none" stroke="#000000" d="M 328.2192663617345 152.17748112294134 L 339 133 L 317.8163431901078 138.9373970863254 L 328.2192663617345 152.17748112294134" stroke-miterlimit="10"/></g><g transform="translate(-62,10) scale(1,1)"><path fill="none" stroke="#000000" d="M 414 87 L 497 45" stroke-miterlimit="10" stroke-dasharray="3"/></g><g transform="translate(-62,10) scale(1,1)"><path fill="#FFFFFF" stroke="none" d="M 482.6656311344438 61.689094320129335 L 497 45 L 475.06309880551055 46.665042336761246"/></g><g transform="translate(-62,10) scale(1,1)"><path fill="none" stroke="#000000" d="M 482.6656311344438 61.689094320129335 L 497 45 L 475.06309880551055 46.665042336761246 L 482.6656311344438 61.689094320129335" stroke-miterlimit="10"/></g><g transform="translate(-62,10) scale(1,1)"><path fill="none" stroke="#000000" d="M 450 110 L 487 110" stroke-miterlimit="10" stroke-dasharray="3"/></g><g transform="translate(-62,10) scale(1,1)"><path fill="#FFFFFF" stroke="none" d="M 466.6746502847517 118.41903551203198 L 487 110 L 466.6746502847517 101.58096448796803"/></g><g transform="translate(-62,10) scale(1,1)"><path fill="none" stroke="#000000" d="M 466.6746502847517 118.41903551203198 L 487 110 L 466.6746502847517 101.58096448796803 L 466.6746502847517 118.41903551203198" stroke-miterlimit="10"/></g><g transform="translate(-62,10) scale(1,1)"><path fill="none" stroke="#000000" d="M 402 133 L 441 159" stroke-miterlimit="10" stroke-dasharray="3"/></g><g transform="translate(-62,10) scale(1,1)"><path fill="#FFFFFF" stroke="none" d="M 419.41824613635674 154.73058550043234 L 441 159 L 428.75832743745934 140.7204635487784"/></g><g transform="translate(-62,10) scale(1,1)"><path fill="none" stroke="#000000" d="M 419.41824613635674 154.73058550043234 L 441 159 L 428.75832743745934 140.7204635487784 L 419.41824613635674 154.73058550043234" stroke-miterlimit="10"/></g><g transform="translate(-62,10) scale(1,1)"><path fill="none" stroke="#000000" d="M 219 293 L 278 407" stroke-miterlimit="10" stroke-dasharray="3"/></g><g transform="translate(-62,10) scale(1,1)"><path fill="#FFFFFF" stroke="none" d="M 261.1807483674779 392.8185764282318 L 278 407 L 276.1347738906368 385.0792123416847"/></g><g transform="translate(-62,10) scale(1,1)"><path fill="none" stroke="#000000" d="M 261.1807483674779 392.8185764282318 L 278 407 L 276.1347738906368 385.0792123416847 L 261.1807483674779 392.8185764282318" stroke-miterlimit="10"/></g><g transform="translate(-62,10) scale(1,1)"><path fill="none" stroke="#000000" d="M 280 248 L 439 252" stroke-miterlimit="10" stroke-dasharray="3"/></g><g transform="translate(-62,10) scale(1,1)"><path fill="#FFFFFF" stroke="none" d="M 418.4693464069055 259.90520480698365 L 439 252 L 418.8928116964443 243.0724595478176"/></g><g transform="translate(-62,10) scale(1,1)"><path fill="none" stroke="#000000" d="M 418.4693464069055 259.90520480698365 L 439 252 L 418.8928116964443 243.0724595478176 L 418.4693464069055 259.90520480698365" stroke-miterlimit="10"/></g><g transform="translate(-62,10) scale(1,1)"><path fill="none" stroke="#000000" d="M 373 442 L 583 474" stroke-miterlimit="10" stroke-dasharray="3"/></g><g transform="translate(-62,10) scale(1,1)"><path fill="#FFFFFF" stroke="none" d="M 561.6383348728347 479.26110853289015 L 583 474 L 564.1748562109802 462.6151872513102"/></g><g transform="translate(-62,10) scale(1,1)"><path fill="none" stroke="#000000" d="M 561.6383348728347 479.26110853289015 L 583 474 L 564.1748562109802 462.6151872513102 L 561.6383348728347 479.26110853289015" stroke-miterlimit="10"/></g><g transform="translate(-62,10) scale(1,1)"><path fill="none" stroke="#000000" d="M 321 407 L 376 365" stroke-miterlimit="10" stroke-dasharray="3"/></g><g transform="translate(-62,10) scale(1,1)"><path fill="#FFFFFF" stroke="none" d="M 364.9556934189577 384.026909684548 L 376 365 L 354.7364390600739 370.6445527860097"/></g><g transform="translate(-62,10) scale(1,1)"><path fill="none" stroke="#000000" d="M 364.9556934189577 384.026909684548 L 376 365 L 354.7364390600739 370.6445527860097 L 364.9556934189577 384.026909684548" stroke-miterlimit="10"/></g><g transform="translate(-62,10) scale(1,1)"><path fill="none" stroke="#000000" d="M 608 231 L 639 222" stroke-miterlimit="10" stroke-dasharray="3"/></g><g transform="translate(-62,10) scale(1,1)"><path fill="#FFFFFF" stroke="none" d="M 621.8279400251896 235.7521037016711 L 639 222 L 617.1333141618372 219.58172572790176"/></g><g transform="translate(-62,10) scale(1,1)"><path fill="none" stroke="#000000" d="M 621.8279400251896 235.7521037016711 L 639 222 L 617.1333141618372 219.58172572790176 L 621.8279400251896 235.7521037016711" stroke-miterlimit="10"/></g><g transform="translate(-62,10) scale(1,1)"><path fill="none" stroke="#000000" d="M 731 183 L 792 141" stroke-miterlimit="10" stroke-dasharray="3"/></g><g transform="translate(-62,10) scale(1,1)"><path fill="#FFFFFF" stroke="none" d="M 780.0335209650907 159.46086074664655 L 792 141 L 770.4846217069946 145.59222134798327"/></g><g transform="translate(-62,10) scale(1,1)"><path fill="none" stroke="#000000" d="M 780.0335209650907 159.46086074664655 L 792 141 L 770.4846217069946 145.59222134798327 L 780.0335209650907 159.46086074664655" stroke-miterlimit="10"/></g><g transform="translate(-62,10) scale(1,1)"><path fill="none" stroke="#000000" d="M 757 211 L 807 216" stroke-miterlimit="10" stroke-dasharray="3"/></g><g transform="translate(-62,10) scale(1,1)"><path fill="#FFFFFF" stroke="none" d="M 785.9377957852869 222.35480555310082 L 807 216 L 787.6132464733209 205.60029867275998"/></g><g transform="translate(-62,10) scale(1,1)"><path fill="none" stroke="#000000" d="M 785.9377957852869 222.35480555310082 L 807 216 L 787.6132464733209 205.60029867275998 L 785.9377957852869 222.35480555310082" stroke-miterlimit="10"/></g><g transform="translate(-62,10) scale(1,1)"><rect fill="#C0C0C0" stroke="none" x="225" y="503" width="117.9599609375" height="44" opacity="0.2"/></g><g transform="translate(-62,10) scale(1,1)"><rect fill="#ffffff" stroke="none" x="218" y="496" width="117.9599609375" height="44"/></g><g transform="translate(-62,10) scale(1,1)"><path fill="none" stroke="#000000" d="M 218 496 L 335.9599609375 496 L 335.9599609375 540 L 218 540 L 218 496 Z Z" stroke-miterlimit="10"/></g><g transform="translate(-62,10) scale(1,1)"><rect fill="#ffffff" stroke="none" x="208" y="503" width="20" height="10"/></g><g transform="translate(-62,10) scale(1,1)"><path fill="none" stroke="#000000" d="M 208 503 L 228 503 L 228 513 L 208 513 L 208 503 Z Z" stroke-miterlimit="10"/></g><g transform="translate(-62,10) scale(1,1)"><rect fill="#ffffff" stroke="none" x="208" y="523" width="20" height="10"/></g><g transform="translate(-62,10) scale(1,1)"><path fill="none" stroke="#000000" d="M 208 523 L 228 523 L 228 533 L 208 533 L 208 523 Z Z" stroke-miterlimit="10"/></g><g transform="translate(-62,10) scale(1,1)"><g><path fill="none" stroke="none"/><text fill="#000000" stroke="none" font-family="Arial" font-size="13px" font-style="normal" font-weight="bold" text-decoration="none" x="237.5400390625" y="515.5">destinations list</text></g></g><g transform="translate(-62,10) scale(1,1)"><path fill="none" stroke="#000000" d="M 540 277 L 652 463" stroke-miterlimit="10" stroke-dasharray="3"/></g><g transform="translate(-62,10) scale(1,1)"><path fill="#FFFFFF" stroke="none" d="M 634.3027617200626 449.9306558212312 L 652 463 L 648.7275846984505 441.2447409095138"/></g><g transform="translate(-62,10) scale(1,1)"><path fill="none" stroke="#000000" d="M 634.3027617200626 449.9306558212312 L 652 463 L 648.7275846984505 441.2447409095138 L 634.3027617200626 449.9306558212312" stroke-miterlimit="10"/></g><g transform="translate(-62,10) scale(1,1)"><path fill="none" stroke="#000000" d="M 224 588 L 583 505" stroke-miterlimit="10" stroke-dasharray="3"/></g><g transform="translate(-62,10) scale(1,1)"><path fill="#FFFFFF" stroke="none" d="M 565.0934566615022 517.7810682521649 L 583 505 L 561.3005817458235 501.37574180965123"/></g><g transform="translate(-62,10) scale(1,1)"><path fill="none" stroke="#000000" d="M 565.0934566615022 517.7810682521649 L 583 505 L 561.3005817458235 501.37574180965123 L 565.0934566615022 517.7810682521649" stroke-miterlimit="10"/></g><g transform="translate(-62,10) scale(1,1)"><path fill="none" stroke="#000000" d="M 179 583 L 239 541" stroke-miterlimit="10" stroke-dasharray="3"/></g><g transform="translate(-62,10) scale(1,1)"><path fill="#FFFFFF" stroke="none" d="M 227.17682455956395 559.5529653291508 L 239 541 L 217.52082487554802 545.7586800662708"/></g><g transform="translate(-62,10) scale(1,1)"><path fill="none" stroke="#000000" d="M 227.17682455956395 559.5529653291508 L 239 541 L 217.52082487554802 545.7586800662708 L 227.17682455956395 559.5529653291508" stroke-miterlimit="10"/></g><g transform="translate(-62,10) scale(1,1)"><path fill="none" stroke="#000000" d="M 189 293 L 150 583" stroke-miterlimit="10" stroke-dasharray="3"/></g><g transform="translate(-62,10) scale(1,1)"><path fill="#FFFFFF" stroke="none" d="M 144.36510056173185 561.7338788604832 L 150 583 L 161.0529428631833 563.9781059286094"/></g><g transform="translate(-62,10) scale(1,1)"><path fill="none" stroke="#000000" d="M 144.36510056173185 561.7338788604832 L 150 583 L 161.0529428631833 563.9781059286094 L 144.36510056173185 561.7338788604832" stroke-miterlimit="10"/></g></g></svg>