<svg version="1.1" xmlns="http://www.w3.org/2000/svg" xmlns:xlink="http://www.w3.org/1999/xlink" width="739.91357421875" height="419"><defs/><g><g transform="translate(-14,-6) scale(1,1)"><path fill="#C0C0C0" stroke="none" d="M 31 56.5 C 31 51.2532944 35.2532944 47 40.5 47 C 45.7467056 47 50 51.2532944 50 56.5 C 50 61.7467056 45.7467056 66 40.5 66 C 35.2532944 66 31 61.7467056 31 56.5 Z" opacity="0.2"/></g><g transform="translate(-14,-6) scale(1,1)"><path fill="#000000" stroke="none" d="M 24 49.5 C 24 44.2532944 28.2532944 40 33.5 40 C 38.7467056 40 43 44.2532944 43 49.5 C 43 54.7467056 38.7467056 59 33.5 59 C 28.2532944 59 24 54.7467056 24 49.5 Z"/></g><g transform="translate(-14,-6) scale(1,1)"><path fill="#C0C0C0" stroke="none" d="M 121 47 L 170.68359375 47 Q 180.68359375 47 180.68359375 57 L 180.68359375 76 Q 180.68359375 86 170.68359375 86 L 121 86 Q 111 86 111 76 L 111 57 Q 111 47 121 47 Z" opacity="0.2"/></g><g transform="translate(-14,-6) scale(1,1)"><path fill="#ffffff" stroke="none" d="M 114 40 L 163.68359375 40 Q 173.68359375 40 173.68359375 50 L 173.68359375 69 Q 173.68359375 79 163.68359375 79 L 114 79 Q 104 79 104 69 L 104 50 Q 104 40 114 40 Z"/></g><g transform="translate(-14,-6) scale(1,1)"><path fill="none" stroke="#000000" d="M 114 40 L 163.68359375 40 Q 173.68359375 40 173.68359375 50 L 173.68359375 69 Q 173.68359375 79 163.68359375 79 L 114 79 Q 104 79 104 69 L 104 50 Q 104 40 114 40 Z" stroke-miterlimit="10"/></g><g transform="translate(-14,-6) scale(1,1)"><g><path fill="none" stroke="none"/><text fill="#000000" stroke="none" font-family="Arial" font-size="13px" font-style="normal" font-weight="bold" text-decoration="none" x="110.293212890625" y="59.5">mainpage</text></g></g><g transform="translate(-14,-6) scale(1,1)"><path fill="#C0C0C0" stroke="none" d="M 337 31 L 417.01904296875 31 Q 427.01904296875 31 427.01904296875 41 L 427.01904296875 60 Q 427.01904296875 70 417.01904296875 70 L 337 70 Q 327 70 327 60 L 327 41 Q 327 31 337 31 Z" opacity="0.2"/></g><g transform="translate(-14,-6) scale(1,1)"><path fill="#ffffff" stroke="none" d="M 330 24 L 410.01904296875 24 Q 420.01904296875 24 420.01904296875 34 L 420.01904296875 53 Q 420.01904296875 63 410.01904296875 63 L 330 63 Q 320 63 320 53 L 320 34 Q 320 24 330 24 Z"/></g><g transform="translate(-14,-6) scale(1,1)"><path fill="none" stroke="#000000" d="M 330 24 L 410.01904296875 24 Q 420.01904296875 24 420.01904296875 34 L 420.01904296875 53 Q 420.01904296875 63 410.01904296875 63 L 330 63 Q 320 63 320 53 L 320 34 Q 320 24 330 24 Z" stroke-miterlimit="10"/></g><g transform="translate(-14,-6) scale(1,1)"><g><path fill="none" stroke="none"/><text fill="#000000" stroke="none" font-family="Arial" font-size="13px" font-style="normal" font-weight="bold" text-decoration="none" x="326.99462890625" y="43.5">language page</text></g></g><g transform="translate(-14,-6) scale(1,1)"><path fill="#C0C0C0" stroke="none" d="M 393 151 L 490.36083984375 151 Q 500.36083984375 151 500.36083984375 161 L 500.36083984375 180 Q 500.36083984375 190 490.36083984375 190 L 393 190 Q 383 190 383 180 L 383 161 Q 383 151 393 151 Z" opacity="0.2"/></g><g transform="translate(-14,-6) scale(1,1)"><path fill="#ffffff" stroke="none" d="M 386 144 L 483.36083984375 144 Q 493.36083984375 144 493.36083984375 154 L 493.36083984375 173 Q 493.36083984375 183 483.36083984375 183 L 386 183 Q 376 183 376 173 L 376 154 Q 376 144 386 144 Z"/></g><g transform="translate(-14,-6) scale(1,1)"><path fill="none" stroke="#000000" d="M 386 144 L 483.36083984375 144 Q 493.36083984375 144 493.36083984375 154 L 493.36083984375 173 Q 493.36083984375 183 483.36083984375 183 L 386 183 Q 376 183 376 173 L 376 154 Q 376 144 386 144 Z" stroke-miterlimit="10"/></g><g transform="translate(-14,-6) scale(1,1)"><g><path fill="none" stroke="none"/><text fill="#000000" stroke="none" font-family="Arial" font-size="13px" font-style="normal" font-weight="bold" text-decoration="none" x="385.181396484375" y="163.5">view destinations</text></g></g><g transform="translate(-14,-6) scale(1,1)"><path fill="#C0C0C0" stroke="none" d="M 305 223 L 408.8671875 223 Q 418.8671875 223 418.8671875 233 L 418.8671875 252 Q 418.8671875 262 408.8671875 262 L 305 262 Q 295 262 295 252 L 295 233 Q 295 223 305 223 Z" opacity="0.2"/></g><g transform="translate(-14,-6) scale(1,1)"><path fill="#ffffff" stroke="none" d="M 298 216 L 401.8671875 216 Q 411.8671875 216 411.8671875 226 L 411.8671875 245 Q 411.8671875 255 401.8671875 255 L 298 255 Q 288 255 288 245 L 288 226 Q 288 216 298 216 Z"/></g><g transform="translate(-14,-6) scale(1,1)"><path fill="none" stroke="#000000" d="M 298 216 L 401.8671875 216 Q 411.8671875 216 411.8671875 226 L 411.8671875 245 Q 411.8671875 255 401.8671875 255 L 298 255 Q 288 255 288 245 L 288 226 Q 288 216 298 216 Z" stroke-miterlimit="10"/></g><g transform="translate(-14,-6) scale(1,1)"><g><path fill="none" stroke="none"/><text fill="#000000" stroke="none" font-family="Arial" font-size="13px" font-style="normal" font-weight="bold" text-decoration="none" x="297.17822265625" y="235.5">search destination</text></g></g><g transform="translate(-14,-6) scale(1,1)"><path fill="#C0C0C0" stroke="none" d="M 169 183 L 210.74267578125 183 Q 220.74267578125 183 220.74267578125 193 L 220.74267578125 212 Q 220.74267578125 222 210.74267578125 222 L 169 222 Q 159 222 159 212 L 159 193 Q 159 183 169 183 Z" opacity="0.2"/></g><g transform="translate(-14,-6) scale(1,1)"><path fill="#ffffff" stroke="none" d="M 162 176 L 203.74267578125 176 Q 213.74267578125 176 213.74267578125 186 L 213.74267578125 205 Q 213.74267578125 215 203.74267578125 215 L 162 215 Q 152 215 152 205 L 152 186 Q 152 176 162 176 Z"/></g><g transform="translate(-14,-6) scale(1,1)"><path fill="none" stroke="#000000" d="M 162 176 L 203.74267578125 176 Q 213.74267578125 176 213.74267578125 186 L 213.74267578125 205 Q 213.74267578125 215 203.74267578125 215 L 162 215 Q 152 215 152 205 L 152 186 Q 152 176 162 176 Z" stroke-miterlimit="10"/></g><g transform="translate(-14,-6) scale(1,1)"><g><path fill="none" stroke="none"/><text fill="#000000" stroke="none" font-family="Arial" font-size="13px" font-style="normal" font-weight="bold" text-decoration="none" x="158.29638671875" y="195.5">navigate</text></g></g><g transform="translate(-14,-6) scale(1,1)"><path fill="#C0C0C0" stroke="none" d="M 553 23 L 660.45361328125 23 Q 670.45361328125 23 670.45361328125 33 L 670.45361328125 52 Q 670.45361328125 62 660.45361328125 62 L 553 62 Q 543 62 543 52 L 543 33 Q 543 23 553 23 Z" opacity="0.2"/></g><g transform="translate(-14,-6) scale(1,1)"><path fill="#ffffff" stroke="none" d="M 546 16 L 653.45361328125 16 Q 663.45361328125 16 663.45361328125 26 L 663.45361328125 45 Q 663.45361328125 55 653.45361328125 55 L 546 55 Q 536 55 536 45 L 536 26 Q 536 16 546 16 Z"/></g><g transform="translate(-14,-6) scale(1,1)"><path fill="none" stroke="#000000" d="M 546 16 L 653.45361328125 16 Q 663.45361328125 16 663.45361328125 26 L 663.45361328125 45 Q 663.45361328125 55 653.45361328125 55 L 546 55 Q 536 55 536 45 L 536 26 Q 536 16 546 16 Z" stroke-miterlimit="10"/></g><g transform="translate(-14,-6) scale(1,1)"><g><path fill="none" stroke="none"/><text fill="#000000" stroke="none" font-family="Arial" font-size="13px" font-style="normal" font-weight="bold" text-decoration="none" x="544.787841796875" y="35.5">changing language</text></g></g><g transform="translate(-14,-6) scale(1,1)"><path fill="#C0C0C0" stroke="none" d="M 609 103 L 688.30810546875 103 Q 698.30810546875 103 698.30810546875 113 L 698.30810546875 132 Q 698.30810546875 142 688.30810546875 142 L 609 142 Q 599 142 599 132 L 599 113 Q 599 103 609 103 Z" opacity="0.2"/></g><g transform="translate(-14,-6) scale(1,1)"><path fill="#ffffff" stroke="none" d="M 602 96 L 681.30810546875 96 Q 691.30810546875 96 691.30810546875 106 L 691.30810546875 125 Q 691.30810546875 135 681.30810546875 135 L 602 135 Q 592 135 592 125 L 592 106 Q 592 96 602 96 Z"/></g><g transform="translate(-14,-6) scale(1,1)"><path fill="none" stroke="#000000" d="M 602 96 L 681.30810546875 96 Q 691.30810546875 96 691.30810546875 106 L 691.30810546875 125 Q 691.30810546875 135 681.30810546875 135 L 602 135 Q 592 135 592 125 L 592 106 Q 592 96 602 96 Z" stroke-miterlimit="10"/></g><g transform="translate(-14,-6) scale(1,1)"><g><path fill="none" stroke="none"/><text fill="#000000" stroke="none" font-family="Arial" font-size="13px" font-style="normal" font-weight="bold" text-decoration="none" x="599.734130859375" y="115.5">apply changes</text></g></g><g transform="translate(-14,-6) scale(1,1)"><path fill="#C0C0C0" stroke="none" d="M 593 167 L 740.91357421875 167 Q 750.91357421875 167 750.91357421875 177 L 750.91357421875 196 Q 750.91357421875 206 740.91357421875 206 L 593 206 Q 583 206 583 196 L 583 177 Q 583 167 593 167 Z" opacity="0.2"/></g><g transform="translate(-14,-6) scale(1,1)"><path fill="#ffffff" stroke="none" d="M 586 160 L 733.91357421875 160 Q 743.91357421875 160 743.91357421875 170 L 743.91357421875 189 Q 743.91357421875 199 733.91357421875 199 L 586 199 Q 576 199 576 189 L 576 170 Q 576 160 586 160 Z"/></g><g transform="translate(-14,-6) scale(1,1)"><path fill="none" stroke="#000000" d="M 586 160 L 733.91357421875 160 Q 743.91357421875 160 743.91357421875 170 L 743.91357421875 189 Q 743.91357421875 199 733.91357421875 199 L 586 199 Q 576 199 576 189 L 576 170 Q 576 160 586 160 Z" stroke-miterlimit="10"/></g><g transform="translate(-14,-6) scale(1,1)"><g><path fill="none" stroke="none"/><text fill="#000000" stroke="none" font-family="Arial" font-size="13px" font-style="normal" font-weight="bold" text-decoration="none" x="586.60009765625" y="179.5">chose wanted destination</text></g></g><g transform="translate(-14,-6) scale(1,1)"><path fill="#C0C0C0" stroke="none" d="M 633 255 L 723.130859375 255 Q 733.130859375 255 733.130859375 265 L 733.130859375 284 Q 733.130859375 294 723.130859375 294 L 633 294 Q 623 294 623 284 L 623 265 Q 623 255 633 255 Z" opacity="0.2"/></g><g transform="translate(-14,-6) scale(1,1)"><path fill="#ffffff" stroke="none" d="M 626 248 L 716.130859375 248 Q 726.130859375 248 726.130859375 258 L 726.130859375 277 Q 726.130859375 287 716.130859375 287 L 626 287 Q 616 287 616 277 L 616 258 Q 616 248 626 248 Z"/></g><g transform="translate(-14,-6) scale(1,1)"><path fill="none" stroke="#000000" d="M 626 248 L 716.130859375 248 Q 726.130859375 248 726.130859375 258 L 726.130859375 277 Q 726.130859375 287 716.130859375 287 L 626 287 Q 616 287 616 277 L 616 258 Q 616 248 626 248 Z" stroke-miterlimit="10"/></g><g transform="translate(-14,-6) scale(1,1)"><g><path fill="none" stroke="none"/><text fill="#000000" stroke="none" font-family="Arial" font-size="13px" font-style="normal" font-weight="bold" text-decoration="none" x="624.81640625" y="267.5">view destination</text></g></g><g transform="translate(-14,-6) scale(1,1)"><path fill="#C0C0C0" stroke="none" d="M 529 303 L 641.525390625 303 Q 651.525390625 303 651.525390625 313 L 651.525390625 332 Q 651.525390625 342 641.525390625 342 L 529 342 Q 519 342 519 332 L 519 313 Q 519 303 529 303 Z" opacity="0.2"/></g><g transform="translate(-14,-6) scale(1,1)"><path fill="#ffffff" stroke="none" d="M 522 296 L 634.525390625 296 Q 644.525390625 296 644.525390625 306 L 644.525390625 325 Q 644.525390625 335 634.525390625 335 L 522 335 Q 512 335 512 325 L 512 306 Q 512 296 522 296 Z"/></g><g transform="translate(-14,-6) scale(1,1)"><path fill="none" stroke="#000000" d="M 522 296 L 634.525390625 296 Q 644.525390625 296 644.525390625 306 L 644.525390625 325 Q 644.525390625 335 634.525390625 335 L 522 335 Q 512 335 512 325 L 512 306 Q 512 296 522 296 Z" stroke-miterlimit="10"/></g><g transform="translate(-14,-6) scale(1,1)"><g><path fill="none" stroke="none"/><text fill="#000000" stroke="none" font-family="Arial" font-size="13px" font-style="normal" font-weight="bold" text-decoration="none" x="522.263671875" y="315.5">view destination list</text></g></g><g transform="translate(-14,-6) scale(1,1)"><path fill="#C0C0C0" stroke="none" d="M 137 271 L 218.447265625 271 Q 228.447265625 271 228.447265625 281 L 228.447265625 300 Q 228.447265625 310 218.447265625 310 L 137 310 Q 127 310 127 300 L 127 281 Q 127 271 137 271 Z" opacity="0.2"/></g><g transform="translate(-14,-6) scale(1,1)"><path fill="#ffffff" stroke="none" d="M 130 264 L 211.447265625 264 Q 221.447265625 264 221.447265625 274 L 221.447265625 293 Q 221.447265625 303 211.447265625 303 L 130 303 Q 120 303 120 293 L 120 274 Q 120 264 130 264 Z"/></g><g transform="translate(-14,-6) scale(1,1)"><path fill="none" stroke="#000000" d="M 130 264 L 211.447265625 264 Q 221.447265625 264 221.447265625 274 L 221.447265625 293 Q 221.447265625 303 211.447265625 303 L 130 303 Q 120 303 120 293 L 120 274 Q 120 264 130 264 Z" stroke-miterlimit="10"/></g><g transform="translate(-14,-6) scale(1,1)"><g><path fill="none" stroke="none"/><text fill="#000000" stroke="none" font-family="Arial" font-size="13px" font-style="normal" font-weight="bold" text-decoration="none" x="128.44189453125" y="283.5">get destination</text></g></g><g transform="translate(-14,-6) scale(1,1)"><path fill="#C0C0C0" stroke="none" d="M 353 359 L 396.16455078125 359 Q 406.16455078125 359 406.16455078125 369 L 406.16455078125 388 Q 406.16455078125 398 396.16455078125 398 L 353 398 Q 343 398 343 388 L 343 369 Q 343 359 353 359 Z" opacity="0.2"/></g><g transform="translate(-14,-6) scale(1,1)"><path fill="#ffffff" stroke="none" d="M 346 352 L 389.16455078125 352 Q 399.16455078125 352 399.16455078125 362 L 399.16455078125 381 Q 399.16455078125 391 389.16455078125 391 L 346 391 Q 336 391 336 381 L 336 362 Q 336 352 346 352 Z"/></g><g transform="translate(-14,-6) scale(1,1)"><path fill="none" stroke="#000000" d="M 346 352 L 389.16455078125 352 Q 399.16455078125 352 399.16455078125 362 L 399.16455078125 381 Q 399.16455078125 391 389.16455078125 391 L 346 391 Q 336 391 336 381 L 336 362 Q 336 352 346 352 Z" stroke-miterlimit="10"/></g><g transform="translate(-14,-6) scale(1,1)"><g><path fill="none" stroke="none"/><text fill="#000000" stroke="none" font-family="Arial" font-size="13px" font-style="normal" font-weight="bold" text-decoration="none" x="342.65185546875" y="371.5">plot map</text></g></g><g transform="translate(-14,-6) scale(1,1)"><path fill="#C0C0C0" stroke="none" d="M 209 343 L 253.61181640625 343 Q 263.61181640625 343 263.61181640625 353 L 263.61181640625 372 Q 263.61181640625 382 253.61181640625 382 L 209 382 Q 199 382 199 372 L 199 353 Q 199 343 209 343 Z" opacity="0.2"/></g><g transform="translate(-14,-6) scale(1,1)"><path fill="#ffffff" stroke="none" d="M 202 336 L 246.61181640625 336 Q 256.61181640625 336 256.61181640625 346 L 256.61181640625 365 Q 256.61181640625 375 246.61181640625 375 L 202 375 Q 192 375 192 365 L 192 346 Q 192 336 202 336 Z"/></g><g transform="translate(-14,-6) scale(1,1)"><path fill="none" stroke="#000000" d="M 202 336 L 246.61181640625 336 Q 256.61181640625 336 256.61181640625 346 L 256.61181640625 365 Q 256.61181640625 375 246.61181640625 375 L 202 375 Q 192 375 192 365 L 192 346 Q 192 336 202 336 Z" stroke-miterlimit="10"/></g><g transform="translate(-14,-6) scale(1,1)"><g><path fill="none" stroke="none"/><text fill="#000000" stroke="none" font-family="Arial" font-size="13px" font-style="normal" font-weight="bold" text-decoration="none" x="198.648681640625" y="355.5">get route</text></g></g><g transform="translate(-14,-6) scale(1,1)"><path fill="none" stroke="#000000" d="M 44 50 L 103 56" stroke-miterlimit="10"/></g><g transform="translate(-14,-6) scale(1,1)"><path fill="none" stroke="#000000" d="M 92.46358151092278 59.15972869452927 L 103 56 L 93.31536145034282 50.78389262356554" stroke-miterlimit="10"/></g><g transform="translate(-14,-6) scale(1,1)"><path fill="none" stroke="#000000" d="M 175 56 L 319 47" stroke-miterlimit="10"/></g><g transform="translate(-14,-6) scale(1,1)"><path fill="none" stroke="#000000" d="M 309.11969865722506 51.8352502909322 L 319 47 L 308.5945336509049 43.43261018980968" stroke-miterlimit="10"/></g><g transform="translate(-14,-6) scale(1,1)"><path fill="none" stroke="#000000" d="M 175 72 L 377 143" stroke-miterlimit="10"/></g><g transform="translate(-14,-6) scale(1,1)"><path fill="none" stroke="#000000" d="M 366.01645347666016 143.6014197948435 L 377 143 L 368.8081917565948 135.65872778714214" stroke-miterlimit="10"/></g><g transform="translate(-14,-6) scale(1,1)"><path fill="none" stroke="#000000" d="M 163 80 L 325 215" stroke-miterlimit="10"/></g><g transform="translate(-14,-6) scale(1,1)"><path fill="none" stroke="#000000" d="M 314.49794931923185 211.72785521430106 L 325 215 L 319.88768451425597 205.2601729802721" stroke-miterlimit="10"/></g><g transform="translate(-14,-6) scale(1,1)"><path fill="none" stroke="#000000" d="M 145 80 L 176 175" stroke-miterlimit="10"/></g><g transform="translate(-14,-6) scale(1,1)"><path fill="none" stroke="#000000" d="M 168.84551903517004 166.6445585320771 L 176 175 L 176.84920731567425 164.0328286721231" stroke-miterlimit="10"/></g><g transform="translate(-14,-6) scale(1,1)"><path fill="none" stroke="#000000" d="M 421 41 L 535 37" stroke-miterlimit="10"/></g><g transform="translate(-14,-6) scale(1,1)"><path fill="none" stroke="#000000" d="M 524.9911867900305 41.563294657146386 L 535 37 L 524.6959637109805 33.149436904221645" stroke-miterlimit="10"/></g><g transform="translate(-14,-6) scale(1,1)"><g><path fill="none" stroke="none"/><text fill="#000000" stroke="none" font-family="Arial" font-size="13px" font-style="normal" font-weight="normal" text-decoration="none" x="431.5" y="30.5">select language</text></g></g><g transform="translate(-14,-6) scale(1,1)"><path fill="none" stroke="#000000" d="M 610 56 L 631 95" stroke-miterlimit="10"/></g><g transform="translate(-14,-6) scale(1,1)"><path fill="none" stroke="#000000" d="M 622.4755189196567 88.04779011314616 L 631 95 L 629.8882363772193 84.05632686676628" stroke-miterlimit="10"/></g><g transform="translate(-14,-6) scale(1,1)"><g><path fill="none" stroke="none"/><text fill="#000000" stroke="none" font-family="Arial" font-size="13px" font-style="normal" font-weight="normal" text-decoration="none" x="604.5" y="73.5">confirmed</text></g></g><g transform="translate(-14,-6) scale(1,1)"><path fill="none" stroke="#000000" d="M 494 167 L 575 173" stroke-miterlimit="10"/></g><g transform="translate(-14,-6) scale(1,1)"><path fill="none" stroke="#000000" d="M 564.5541278936199 176.44728239881093 L 575 173 L 565.1760562373071 168.0512497590355" stroke-miterlimit="10"/></g><g transform="translate(-14,-6) scale(1,1)"><path fill="none" stroke="#000000" d="M 662 200 L 668 247" stroke-miterlimit="10"/></g><g transform="translate(-14,-6) scale(1,1)"><path fill="none" stroke="#000000" d="M 662.5374510979531 237.4521960905795 L 668 247 L 670.8887115185902 236.38607773900878" stroke-miterlimit="10"/></g><g transform="translate(-14,-6) scale(1,1)"><path fill="none" stroke="#000000" d="M 565 56 L 512 88 L 421 59" stroke-miterlimit="10"/></g><g transform="translate(-14,-6) scale(1,1)"><path fill="none" stroke="#000000" d="M 431.9610366852227 58.07497308947195 L 421 59 L 429.40471617016993 66.0965305677411" stroke-miterlimit="10"/></g><g transform="translate(-14,-6) scale(1,1)"><g><path fill="none" stroke="none"/><text fill="#000000" stroke="none" font-family="Arial" font-size="13px" font-style="normal" font-weight="normal" text-decoration="none" x="463.5" y="74.5">unconfirmed</text></g></g><g transform="translate(-14,-6) scale(1,1)"><path fill="none" stroke="#000000" d="M 591 114 L 440 112 L 391 64" stroke-miterlimit="10"/></g><g transform="translate(-14,-6) scale(1,1)"><path fill="none" stroke="#000000" d="M 401.20552963423074 68.10452980070049 L 391 64 L 395.31405835430724 74.1187400656224" stroke-miterlimit="10"/></g><g transform="translate(-14,-6) scale(1,1)"><path fill="none" stroke="#000000" d="M 625 247 L 482 184" stroke-miterlimit="10"/></g><g transform="translate(-14,-6) scale(1,1)"><path fill="none" stroke="#000000" d="M 492.9972708047593 184.2450200946644 L 482 184 L 489.60298939012597 191.9495001310543" stroke-miterlimit="10"/></g><g transform="translate(-14,-6) scale(1,1)"><path fill="none" stroke="#000000" d="M 409 256 L 521 295" stroke-miterlimit="10"/></g><g transform="translate(-14,-6) scale(1,1)"><path fill="none" stroke="#000000" d="M 510.0182527587105 295.63342523507515 L 521 295 L 512.7868327773112 287.68263133550386" stroke-miterlimit="10"/></g><g transform="translate(-14,-6) scale(1,1)"><path fill="none" stroke="#000000" d="M 179 216 L 173 263" stroke-miterlimit="10"/></g><g transform="translate(-14,-6) scale(1,1)"><path fill="none" stroke="#000000" d="M 170.11128848140987 252.38607773900878 L 173 263 L 178.46254890204696 253.4521960905795" stroke-miterlimit="10"/></g><g transform="translate(-14,-6) scale(1,1)"><path fill="none" stroke="#000000" d="M 186 304 L 209 335" stroke-miterlimit="10"/></g><g transform="translate(-14,-6) scale(1,1)"><path fill="none" stroke="#000000" d="M 199.56394603503801 329.34660406743654 L 209 335 L 206.32525685438125 324.3301476530851" stroke-miterlimit="10"/></g><g transform="translate(-14,-6) scale(1,1)"><path fill="none" stroke="#000000" d="M 258 359 L 335 367" stroke-miterlimit="10"/></g><g transform="translate(-14,-6) scale(1,1)"><path fill="none" stroke="#000000" d="M 324.4567240808209 370.13677109334714 L 335 367 L 325.32674599049193 361.7628102127633" stroke-miterlimit="10"/></g><g transform="translate(-14,-6) scale(1,1)"><g><path fill="none" stroke="none"/><text fill="#000000" stroke="none" font-family="Arial" font-size="13px" font-style="normal" font-weight="normal" text-decoration="none" x="274.5" y="338.5">success</text></g></g><g transform="translate(-14,-6) scale(1,1)"><path fill="none" stroke="#000000" d="M 239 335 L 280 280 L 206 216" stroke-miterlimit="10"/></g><g transform="translate(-14,-6) scale(1,1)"><path fill="none" stroke="#000000" d="M 216.44033717271992 219.46400919743618 L 206 216 L 210.93300881910457 225.83185760630394" stroke-miterlimit="10"/></g><g transform="translate(-14,-6) scale(1,1)"><g><path fill="none" stroke="none"/><text fill="#000000" stroke="none" font-family="Arial" font-size="13px" font-style="normal" font-weight="normal" text-decoration="none" x="222.5" y="292.5">failure</text></g></g><g transform="translate(-14,-6) scale(1,1)"><path fill="#C0C0C0" stroke="none" d="M 481 383 L 629.60546875 383 Q 639.60546875 383 639.60546875 393 L 639.60546875 412 Q 639.60546875 422 629.60546875 422 L 481 422 Q 471 422 471 412 L 471 393 Q 471 383 481 383 Z" opacity="0.2"/></g><g transform="translate(-14,-6) scale(1,1)"><path fill="#ffffff" stroke="none" d="M 474 376 L 622.60546875 376 Q 632.60546875 376 632.60546875 386 L 632.60546875 405 Q 632.60546875 415 622.60546875 415 L 474 415 Q 464 415 464 405 L 464 386 Q 464 376 474 376 Z"/></g><g transform="translate(-14,-6) scale(1,1)"><path fill="none" stroke="#000000" d="M 474 376 L 622.60546875 376 Q 632.60546875 376 632.60546875 386 L 632.60546875 405 Q 632.60546875 415 622.60546875 415 L 474 415 Q 464 415 464 405 L 464 386 Q 464 376 474 376 Z" stroke-miterlimit="10"/></g><g transform="translate(-14,-6) scale(1,1)"><g><path fill="none" stroke="none"/><text fill="#000000" stroke="none" font-family="Arial" font-size="13px" font-style="normal" font-weight="bold" text-decoration="none" x="475.3046875" y="395.5">plot destination and route</text></g></g><g transform="translate(-14,-6) scale(1,1)"><path fill="none" stroke="#000000" d="M 400 375 L 463 384" stroke-miterlimit="10"/></g><g transform="translate(-14,-6) scale(1,1)"><path fill="none" stroke="#000000" d="M 452.3441494602911 386.7299907097617 L 463 384 L 453.53478088061274 378.39557076751026" stroke-miterlimit="10"/></g></g></svg>